<svg width="94" height="94" viewBox="0 0 94 94" fill="none" xmlns="http://www.w3.org/2000/svg">
<path d="M45.7295 38.8558C19.3728 39.1936 3.29 50.4002 3.86281 65.7559C4.465 82.0003 24.4767 91.5545 47.7858 91.5325C74.3334 91.5105 89.5423 78.6442 89.8802 66.5344C90.2767 52.4123 76.0739 38.4739 45.7295 38.8558Z" fill="#DBDAD8"/>
<path d="M45.7442 37.5853C20.9297 37.9085 5.77953 48.6524 6.31562 63.3692C6.88109 78.938 26.8341 88.2646 47.683 88.081C71.7484 87.868 87.0087 75.7288 87.3319 64.1183C87.7064 50.5764 74.3261 37.2108 45.7442 37.5853Z" fill="#F6F6F6"/>
<path d="M26.9442 50.2166C26.9442 50.2166 22.1708 50.973 19.1452 53.7783C16.1195 56.5836 15.0547 63.7731 20.1292 70.1328C25.2037 76.4925 30.2636 75.5378 30.2636 75.5378C30.2636 75.5378 32.4006 77.8584 34.288 78.9159C36.1753 79.9734 38.9072 81.6405 39.8912 82.6245C40.8753 83.6086 43.0637 85.7162 44.4811 85.3491C45.0025 85.2169 45.3477 84.7836 45.4945 84.6073C45.7809 84.2548 45.4578 83.9758 45.3477 83.682C45.1934 83.3001 39.5167 79.2905 39.5167 79.2905L39.2891 78.0053C39.2891 78.0053 42.1678 79.1436 43.7541 80.2011C45.3477 81.2586 48.0428 82.9109 49.137 82.7714C50.268 82.6245 50.4148 82.2059 50.5177 82.0591C51.0978 81.2586 49.9595 79.7458 49.9595 79.7458C49.9595 79.7458 50.9436 79.1436 52.8383 79.217C54.733 79.2905 63.3619 80.4287 67.3789 76.867C69.7656 74.752 70.3605 73.063 70.4486 72.0422C70.5073 71.3445 70.5881 70.948 70.5881 70.948C70.5881 70.948 76.397 71.6383 78.7397 68.2308C81.0823 64.8233 81.545 60.0498 80.2525 57.8541C78.9673 55.6583 77.528 53.7636 77.528 53.7636C77.528 53.7636 77.2342 51.8469 75.4423 50.6498C73.5477 49.3794 70.8598 48.7698 70.8598 48.7698L26.9442 50.2166Z" fill="#FFA726"/>
<path d="M57.0022 75.3542C57.0022 75.3542 59.4256 74.4436 60.7916 73.6872C62.2823 72.8573 63.5161 71.7925 64.1991 72.402C64.882 73.0042 63.7511 74.4069 62.0767 74.8255C59.6533 75.4277 57.0022 75.3542 57.0022 75.3542ZM23.6469 69.3617C23.5881 69.4572 24.3005 70.6983 25.637 71.5722C26.79 72.3213 27.9723 72.8206 28.1266 72.4461C28.2514 72.1377 27.943 72.0422 27.3481 71.4474C26.9369 71.0361 26.6652 70.4853 26.6652 70.4853C26.6652 70.4853 25.9822 70.4853 25.2037 70.2063C24.6456 70.0039 24.1208 69.7193 23.6469 69.3617Z" fill="#F6F6F6"/>
<path d="M50.8041 58.045C50.8628 58.1405 52.17 59.8809 54.0647 59.7488C55.9594 59.6166 57.6484 57.3694 57.6484 57.3694C57.6484 57.3694 52.6033 56.5836 52.5666 56.657C52.5298 56.7378 50.8041 58.045 50.8041 58.045Z" fill="#F7DF92"/>
<path d="M76.118 56.1577C76.118 56.1577 77.3958 53.6314 75.4791 51.9644C73.5623 50.29 71.3519 50.1872 71.3519 50.1872L68.3997 51.8249C68.3997 51.8249 71.4547 51.9644 72.8059 52.6767C74.1572 53.3891 74.5464 54.3511 74.1572 54.7403C73.768 55.1295 72.358 54.2703 70.0447 54.2703C67.7314 54.2703 66.762 54.8138 66.762 54.8138L66.975 56.8039C66.975 56.8039 72.3066 56.2017 74.4803 58.3314C76.6467 60.4611 77.1755 65.2272 72.7399 66.5784C68.2969 67.9297 63.7805 62.7009 58.4856 63.5234C53.8517 64.2358 52.1186 69.7069 52.1186 69.7069C52.1186 69.7069 54.5347 66.9309 58.3755 65.9028C61.1881 65.1464 65.8073 67.9664 65.8073 67.9664L62.9653 68.1794C62.9653 68.1794 60.6447 66.5491 57.5603 67.6139C54.1455 68.7889 51.3402 73.0924 46.3978 73.9442C42.6305 74.5978 37.6514 73.6945 33.8473 71.205C30.0433 68.7155 27.1131 64.2799 26.5917 63.3472C26.2392 62.7083 25.7105 61.7389 26.1584 61.4305C26.6211 61.1074 27.1645 62.3117 27.7667 63.0975C28.3616 63.8686 34.4422 73.0703 44.5839 72.2699C54.968 71.4547 51.1933 62.8478 51.1933 62.8478C51.1933 62.8478 53.6608 63.6116 56.0181 62.958C59.5798 61.9666 61.0413 58.9777 61.0413 58.9777L58.6619 58.5884C58.6619 58.5884 56.5322 61.078 53.7195 60.865C50.9142 60.652 49.3794 58.5517 49.3794 58.5517L47.0661 59.477L48.667 61.2542C48.667 61.2542 46.8898 60.7181 45.2889 61.1441C43.688 61.57 42.77 62.4366 43.4383 63.4206C44.0405 64.3092 45.5459 63.3545 46.0013 63.2077C46.7503 62.958 48.7405 63.0681 49.4161 64.8453C50.0917 66.6225 49.6291 69.5747 45.3991 70.0374C41.1691 70.5 35.9036 68.6494 32.173 65.2052C28.4423 61.7609 28.9123 60.2408 26.6064 58.9777C24.4914 57.8247 23.3825 59.3595 23.5 61.2175C23.6248 63.2738 25.3506 66.1599 25.3506 66.1599C25.3506 66.1599 22.4352 63.9567 21.8991 61.0045C21.363 58.0524 21.8991 56.635 23.3898 56.5616C24.8806 56.4881 25.0275 57.4502 25.4167 57.0609C25.8059 56.6717 23.8525 53.9692 21.15 55.5702C18.5283 57.1197 19.6739 61.4084 19.9897 62.5467C20.445 64.2138 22.0753 67.3349 24.3886 68.2602C26.085 68.9358 26.7019 68.4364 26.7019 68.4364C26.7019 68.4364 29.7569 71.9541 32.6063 73.6284C35.4483 75.3028 40.2878 77.1828 43.453 78.7838C46.6181 80.3847 48.8213 82.0884 49.607 82.3381C50.3928 82.5878 51.4209 81.523 50.6058 80.4214C49.7906 79.3199 48.8286 78.8205 48.153 78.3578C47.4773 77.8952 45.2008 76.7569 45.2008 76.7569C45.2008 76.7569 46.552 76.9331 47.6903 76.867C48.8286 76.7936 49.2545 76.6174 49.2545 76.6174C49.2545 76.6174 49.2178 78.1081 50.4663 78.3578C51.7073 78.6075 53.0733 77.998 55.1956 78.2477C58.4636 78.6369 65.33 78.6736 67.9297 74.6566C70.5147 70.6542 67.7975 68.8844 67.7975 68.8844C67.7975 68.8844 74.5758 70.7791 77.6014 65.9102C80.7225 60.8356 76.118 56.1577 76.118 56.1577ZM56.0916 70.4486C58.4048 68.8991 60.1306 69.3324 60.1306 69.3324C60.1306 69.3324 58.5517 70.5367 56.4294 71.7044C54.2262 72.9161 52.405 73.298 52.405 73.298C52.6547 73.1878 54.6889 71.3886 56.0916 70.4486ZM62.5173 75.5011C58.4048 76.7349 53.3964 75.5231 53.3964 75.5231C53.3964 75.5231 57.3988 74.1719 59.5945 72.5563C61.7977 70.9406 65.0803 69.325 66.3361 70.8966C67.4817 72.3359 64.8159 74.8108 62.5173 75.5011Z" fill="#F7DF92"/>
<path d="M59.1539 62.3191C59.1245 62.4512 61.5773 62.1208 64.2431 63.2076C66.9089 64.2872 72.5342 67.4083 74.3334 63.7731C75.9784 60.4391 73.342 58.4122 70.8305 58.1552C69.0753 57.9716 67.7461 57.9422 67.0411 58.28C66.1305 58.7133 66.0644 60.182 67.4964 60.16C68.9284 60.138 72.5856 59.6753 71.91 62.2823C71.3445 64.4708 66.8428 61.548 64.8747 61.0045C61.7022 60.1306 59.3228 61.5627 59.1539 62.3191Z" fill="#F7DF92"/>
<path d="M70.1255 70.1034C70.2944 70.3678 70.3972 70.757 70.4266 70.9774C70.4853 71.3666 70.4559 71.8586 70.4559 71.8806C70.4706 72.0642 78.7323 73.4963 81.288 66.0717C82.8081 61.6581 80.9869 57.6925 80.0689 56.3266C79.1583 54.9533 77.8364 53.4331 77.528 53.5359C77.2269 53.6388 77.5941 55.4527 78.2403 56.5836C79.1069 58.1038 81.2072 62.3558 79.2537 65.9249C76.2208 71.4988 70.1255 70.1034 70.1255 70.1034ZM29.1914 52.5739C29.2208 53.2422 30.2636 55.7611 33.4802 59.947C35.6319 62.745 38.5327 64.2578 40.1042 64.4267C41.8447 64.6177 41.9034 62.5761 40.5081 62.04C39.1128 61.5039 37.6 60.6594 36.5645 59.7047C34.3908 57.6925 33.157 55.1222 33.157 55.1222L31.1228 52.8456L29.1914 52.5739Z" fill="#F7DF92"/>
<path d="M40.8459 65.8074C38.1875 65.2933 34.7653 64.0081 31.3872 58.7941C28.0091 53.58 26.8194 51.0978 24.1242 50.5911C21.4291 50.0844 17.5075 51.6339 15.8919 56.378C14.8197 59.5284 15.3558 67.9591 21.3923 73.1364C27.4289 78.3138 29.4484 77.3077 30.3444 76.3383C30.9686 75.6627 30.8511 74.6125 30.8511 74.6125C30.8511 74.6125 32.0702 76.2281 34.6625 77.8878C36.2781 78.9233 38.5694 80.1056 39.9133 81.2292C41.9255 82.9183 42.8655 84.1447 44.0478 84.6808C45.1273 85.1728 46.2803 84.5045 45.5239 83.425C44.7675 82.3455 43.1886 80.9428 41.7492 79.687C40.7137 78.7838 39.1128 77.8878 39.1128 77.8878C39.1128 77.8878 37.2181 77.2416 35.0958 76.2722C31.6442 74.6933 29.3383 72.5342 29.1253 72.4608C28.9417 72.402 29.2355 74.473 27.7227 74.3335C26.2098 74.1866 21.5025 70.6983 19.5564 66.8502C17.8673 63.5088 17.3019 58.8014 18.4989 56.3339C19.953 53.323 22.4719 53.2789 23.7644 53.4699C25.4534 53.7195 26.4962 55.8052 27.7227 57.6044C28.9491 59.4036 33.5022 67.2761 39.9867 68.5025C47.0367 69.8317 48.4394 65.6605 47.4333 65.1905C46.4272 64.7205 44.9437 66.6005 40.8459 65.8074Z" fill="#F7DF92"/>
<path d="M28.5745 45.825C28.5745 45.825 23.2283 47.5361 23.1255 50.268C23.0594 51.957 27.3261 52.897 30.1241 54.3878C32.9147 55.8859 35.228 59.3448 39.2891 60.3583C43.475 61.3937 46.7356 59.7928 48.4908 59.3375C50.2459 58.8822 52.8089 57.9789 54.8211 58.2726C56.8333 58.5664 60.3656 59.6312 63.1636 59.0144C65.9542 58.3975 67.6433 56.9067 68.6273 55.0341C69.4131 53.5433 69.538 51.9937 69.538 51.9937C69.538 51.9937 72.4608 50.8848 72.6517 48.9681C72.9014 46.5006 68.8183 45.2228 68.8183 45.2228L28.5745 45.825Z" fill="#BC2A16"/>
<path d="M25.9969 46.9413C26.0483 47.2864 28.0825 47.8813 30.1608 47.8299C32.2391 47.7785 33.9428 48.2264 34.9342 49.3647C35.9256 50.503 35.8816 53.6975 39.8252 55.1295C44.0184 56.657 49.328 53.7049 53.9325 53.4552C58.537 53.2055 59.9544 54.4539 63.0241 52.9705C66.0938 51.487 65.9909 48.3659 66.8355 47.2277C67.68 46.0894 68.9137 45.2449 68.9137 45.2449C68.9137 45.2449 66.527 44.3856 64.7939 43.3942C63.0608 42.4028 60.9605 40.8019 59.3081 40.0749C57.575 39.3111 56.1356 38.966 55.3058 38.6649C54.8137 38.4813 52.0672 36.7555 49.1444 36.8583C46.2216 36.9538 42.3881 38.3711 41.0956 38.8631C39.8105 39.3552 36.2414 39.4066 33.8694 41.5877C31.4973 43.7688 31.5047 44.5986 29.2722 45.4285C27.6786 46.0233 25.9969 46.9413 25.9969 46.9413Z" fill="#DC4E20"/>
<path d="M55.3719 47.7344C55.2617 48.9167 56.1723 50.0991 57.9569 50.0991C59.8001 50.0991 60.5419 48.623 60.3216 47.5508C60.0572 46.273 58.963 45.7001 57.553 45.7442C56.4073 45.7809 55.4747 46.5887 55.3719 47.7344ZM52.4931 50.1358C51.5678 50.5397 51.4136 51.5898 51.6412 52.0525C51.8983 52.5666 52.4931 52.9044 53.4478 52.7501C54.0353 52.662 54.9239 51.8395 54.6669 50.9803C54.3731 49.9889 53.3597 49.7539 52.4931 50.1358ZM34.075 46.1848C34.2439 47.6536 35.7347 48.6597 37.9892 47.6609C40.4126 46.5887 40.0528 44.6353 39.245 43.6366C38.4298 42.6378 36.9097 42.6892 35.9256 43.1225C34.7359 43.6366 33.8547 44.2681 34.075 46.1848Z" fill="#BC2A16"/>
<path d="M44.1947 16.685C43.4089 18.095 43.7834 18.8294 43.967 21.0839C44.1506 23.3384 44.5913 27.5097 44.5913 27.5097C44.5913 27.5097 43.6733 27.4216 43.7247 28.178C43.7761 28.9344 47.3525 42.3881 47.1983 42.4395C47.0441 42.4909 46.4713 48.0355 46.8384 48.2264C46.8458 48.2264 47.3966 48.5936 48.175 47.6609C49.0269 46.6328 48.7111 42.1898 48.3586 39.9206C48.0061 37.6514 47.0367 34.7727 46.4933 33.1203C45.9131 31.3358 45.9939 30.2269 45.9939 30.2269C45.9939 30.2269 46.3023 29.9845 46.5006 29.8303C46.6989 29.6761 46.9119 29.3089 46.9119 29.3089C46.9119 29.3089 46.765 31.2183 47.4994 34.0603C47.8813 35.5437 48.9608 38.048 49.3427 40.6036C49.8788 44.2241 49.2398 46.5961 49.5777 47.0955C50.1578 47.9473 51.2006 47.213 51.6413 45.2228C51.913 44.0111 51.443 38.9292 50.5103 36.4984C49.5777 34.0677 49.2766 32.4887 49.1223 31.2256C49.0195 30.4105 49.1517 29.1547 49.1517 29.1547C49.1517 29.1547 49.4748 29.6394 50.0991 29.5292C50.5911 29.4411 50.9142 28.9858 50.9142 28.9858L49.8053 27.2747L48.5569 27.4656C48.5569 27.4656 47.9033 26.4448 47.7638 25.5342C47.6242 24.6236 47.2277 21.0545 47.1102 20.9444C47 20.8342 45.2963 17.4341 45.2963 17.4341L44.1947 16.685ZM37.9672 19.2112C37.9672 19.2112 37.5045 18.6605 36.5866 19.3141C36.0284 19.7106 36.1386 20.7608 36.2267 22.0606C36.3075 23.2136 36.638 25.4387 37.0566 26.6431C37.6734 28.4203 39.3405 30.1681 40.7505 30.1241C42.1605 30.08 40.3172 28.3175 39.4359 25.7766C38.753 23.8011 38.5694 21.2969 38.4813 21.0986C38.3931 20.9077 37.9672 19.2112 37.9672 19.2112Z" fill="#FBC11A"/>
<path d="M31.4239 22.8978C31.4827 23.2577 31.8719 23.992 32.7311 23.8599C33.5756 23.735 48.1677 20.3202 48.1677 20.3202L47.5361 18.7339C47.5361 18.7339 36.7702 21.4878 36.1386 21.6788C35.5144 21.8697 32.0628 22.6114 31.8352 22.7142C31.5341 22.8538 31.4239 22.8978 31.4239 22.8978ZM31.7764 25.123C31.7764 25.123 31.725 25.2331 31.982 25.7105C32.0848 25.9088 32.3272 26.2392 33.0909 26.1291C33.6344 26.0483 49.8567 23.5367 49.8567 23.5367L49.7172 22.2589L48.9828 21.6053L31.7764 25.123Z" fill="#ADADAD"/>
<path d="M32.5769 27.6933C32.5769 27.6933 32.5402 28.3102 33.1497 28.5158C33.9942 28.8022 47.6683 27.5978 50.0109 27.2673C52.3536 26.9369 56.2017 26.1805 59.5211 24.0214C62.8405 21.8623 63.9641 17.3459 64.5883 15.8405C65.2125 14.3423 67.4744 11.258 70.5588 10.3914C73.6358 9.5175 80.5903 7.82844 83.6159 7.25563C86.6416 6.68281 88.0589 6.22016 88.7125 5.42703C89.3661 4.63391 89.2339 3.4075 89.2339 3.4075C89.2339 3.4075 79.665 4.935 79.3933 5.06719C79.1216 5.20672 68.0545 8.61422 68.0545 8.61422L61.1881 15.3778L51.9203 24.3005C51.9203 24.3005 46.5227 25.8794 46.4125 25.9087C46.3097 25.9308 32.5769 27.6933 32.5769 27.6933Z" fill="#ADADAD"/>
<path d="M86.3184 2.39407C87.3613 2.20313 88.7052 2.07094 89.0577 2.62172C89.4102 3.16516 89.2045 3.80407 89.2045 3.80407C89.2045 3.80407 79.5034 6.30094 76.8156 6.93985C74.1278 7.57875 68.877 9.37063 67.6947 10.0463C66.5123 10.7219 64.8453 12.3155 63.7584 13.9164C62.6716 15.5173 61.2616 19.8061 59.3448 21.855C57.4281 23.9039 52.9117 25.6003 49.3941 26.2686C45.8764 26.9369 32.643 28.0238 32.643 28.0238C32.643 28.0238 32.3419 27.2306 32.6356 27.0984C32.922 26.9736 35.3895 26.7459 35.3895 26.7459L48.5128 24.9247C48.9314 24.8586 49.5042 24.5428 49.4749 24.0288C49.4455 23.5147 49.4234 22.817 48.6891 22.7803C47.9547 22.7509 32.7531 25.6517 32.1803 25.6077C31.7544 25.5783 31.6148 24.7631 31.982 24.6603C32.3492 24.5575 48.0061 21.4364 48.2631 21.2381C48.5202 21.0472 47.94 19.6078 47.5581 19.5123C47.1763 19.4169 32.2684 23.1842 31.9086 23.265C31.5414 23.3458 31.1375 22.6188 31.6883 22.2956C32.2317 21.9725 40.0749 19.9897 41.4188 19.6078C42.7627 19.2259 52.4931 17.0155 54.8652 16.4059C57.2372 15.7964 59.477 14.548 60.5272 13.4611C61.5847 12.3742 64.3974 9.74516 66.0938 8.84922C67.7902 7.95329 73.4669 5.42704 78.2256 4.20797C82.463 3.13579 85.2756 2.59235 86.3184 2.39407Z" fill="#D0D0D2"/>
<path d="M49.2399 16.4794L48.0869 16.9567L50.2019 20.8269L50.6499 25.8573L50.5838 28.222C50.5838 28.222 52.3463 28.6406 52.3463 28.413C52.3463 28.1853 52.6694 22.9419 52.6327 22.8464C52.6033 22.7509 51.8028 18.3006 51.6706 18.2052C51.5458 18.1097 49.2399 16.4794 49.2399 16.4794Z" fill="#FFA724"/>
<path d="M37.7836 22.8978C37.8056 23.0888 37.8791 23.6763 38.7236 23.6469C39.5681 23.6248 39.5902 22.9639 39.5681 22.3544C39.5461 21.7448 39.4286 20.423 39.4286 20.188C39.4286 19.953 39.3845 19.3875 39.7591 19.3875C40.4273 19.3875 41.0662 21.0986 41.2866 23.757C41.5509 26.9516 41.1764 27.8548 40.5595 28.1045C40.163 28.2661 40.0234 28.2147 39.6122 28.5819C39.3625 28.8022 39.5534 29.7275 40.207 30.058C40.442 30.1755 40.9341 30.2195 41.3306 30.1755C43.1005 29.9772 43.4016 26.4522 43.2327 24.1022C42.9536 20.2614 42.4469 19.5711 41.6831 18.543C40.6477 17.155 39.2597 17.39 38.5767 17.7645C37.8937 18.1391 37.5559 18.9983 37.6073 20.1806C37.6734 21.385 37.7836 22.8978 37.7836 22.8978Z" fill="#FCC01E"/>
<path d="M39.0687 17.8086C38.9733 18.2345 39.3992 18.6091 39.7297 18.8881C40.0601 19.1672 40.5301 19.8061 40.8606 20.6506C41.0516 21.1427 41.3526 23.1916 42.3661 22.9786C43.3795 22.7656 42.792 20.5331 42.4395 19.7841C42.087 19.035 41.6537 18.1023 40.6256 17.6177C39.8619 17.2652 39.1348 17.5075 39.0687 17.8086Z" fill="#FDDD9C"/>
<path d="M46.765 15.3484C46.765 15.3484 46.0306 15.1942 45.1494 15.7376C44.7087 16.0094 44.0698 16.6262 44.0698 17.1183C44.0698 17.6103 44.0037 17.8012 44.1947 17.9922C44.3856 18.1831 44.7234 18.4328 45.0612 19.0203C45.6194 19.975 46.3464 21.0692 46.5594 22.2883C46.9339 24.4841 46.9045 26.2392 46.317 27.1498C45.7295 28.0605 45.5019 28.0017 45.5019 28.0017L47.5214 28.9197C47.5214 28.9197 48.0134 27.8622 47.9914 27.4362C47.9694 27.0103 47.8519 19.8208 47.8519 19.8208C47.8519 19.8208 48.8286 21.0178 49.115 22.4939C49.4014 23.97 49.5923 25.6223 49.4969 26.3347C49.3941 27.1058 49.1811 28.0751 49.1811 28.0751L51.0391 29.0959C51.0391 29.0959 51.3328 28.8462 51.4577 27.8622C51.5384 27.238 51.5091 25.2845 51.3108 23.478C51.1786 22.2516 50.9289 21.833 50.9289 21.833L48.6009 17.3753L49.0709 16.1783L50.0109 16.9053L51.0758 18.8734L51.6339 20.5698C51.6339 20.5698 52.2948 22.6187 52.2948 24.4987C52.2948 26.3787 51.3769 28.1412 51.3769 28.1412L50.2973 29.5072C50.2973 29.5072 50.0623 30.6822 51.0244 30.8951C51.9864 31.1081 52.7869 29.8597 53.3303 28.4937C53.5947 27.8328 54.0573 26.533 54.0941 25.0642C54.1381 23.5073 53.7416 21.7595 53.3083 20.1292C52.4637 16.9567 50.6866 15.9359 49.607 15.2309C48.5202 14.5259 46.765 15.3484 46.765 15.3484Z" fill="#FBC11A"/>
<path d="M45.3991 16.3251C45.3991 16.3251 44.6427 16.5308 44.415 16.9494C44.0772 17.5736 44.7748 18.0436 45.098 18.4034C45.4725 18.8294 46.2436 19.9236 46.6695 20.8489C47.1616 21.9064 47.3158 23.6762 47.3305 24.6309C47.3525 26.5844 46.6989 27.7373 46.6034 27.943C46.508 28.1559 46.6255 28.6259 47.213 28.7214C47.8005 28.8169 48.4394 27.7447 48.7625 26.1364C49.1884 24.0434 48.6083 21.6494 48.388 20.915C47.9033 19.3287 47.022 17.9701 47.0734 17.8306C47.1175 17.6911 48.0869 18.4181 48.9094 20.467C49.4381 21.7889 49.7466 22.8537 49.842 23.1475C50.033 23.757 50.547 23.9847 50.9436 23.6616C51.5678 23.1475 51.0611 21.1867 50.3488 19.5123C49.82 18.2712 48.8139 16.9861 48.8433 16.92C48.902 16.8025 50.1284 17.3386 50.8188 18.5062C51.4283 19.5417 51.7514 20.6506 52.4344 20.6066C53.1173 20.5625 53.1394 18.8147 52.1186 17.3386C51.3548 16.2297 49.9669 15.3851 49.4969 15.1795C48.902 14.9151 48.1677 14.6214 47.492 14.9225C47.1542 15.0694 46.9927 15.3925 46.9927 15.3925C46.9927 15.3925 46.4786 15.1648 45.8177 15.5247C45.3403 15.7891 45.3991 16.3251 45.3991 16.3251ZM45.0759 28.2514C44.9584 28.1559 43.9744 27.8769 43.7394 28.4864C43.5044 29.0959 43.3722 30.4178 43.7173 32.0848C44.2608 34.7212 45.6781 38.3931 46.1408 41.0883C46.8898 45.4578 46.1702 47.4333 46.3023 47.8151C46.5153 48.4026 47.2644 48.3806 47.4994 47.8372C47.7123 47.3451 47.8739 46.2142 47.8959 44.4737C47.9253 42.1678 47.6169 39.8178 47.0955 38.1508C46.5814 36.4837 45.7075 33.5095 45.3109 31.7544C44.863 29.7862 45.0759 28.2514 45.0759 28.2514Z" fill="#FDDD9C"/>
</svg>
