<svg width="800" height="800" viewBox="0 0 1024 1024" class="icon" xmlns="http://www.w3.org/2000/svg"><path d="M191.88 447.272v63.96c0 160.348 90.92 299.205 223.86 368.57v47.17H799.5v-47.17c132.941-69.365 223.86-208.254 223.86-368.57v-63.96H191.88z" fill="#EF4D4D"/><path d="M255.84 1022.913H959.4a63.96 63.96 0 0 0 63.96-63.96H191.88a63.96 63.96 0 0 0 63.96 63.96z" fill="#434854"/><path d="M238.187 701.673c-4.765.448-9.434 1.44-14.327 1.44a159.9 159.9 0 0 1-159.9-159.9 31.98 31.98 0 0 1 31.98-31.98h95.94v-63.96H95.94A95.94 95.94 0 0 0 0 543.212a223.86 223.86 0 0 0 223.86 223.86c17.845 0 35.114-2.303 51.712-6.237a421.273 421.273 0 0 1-37.385-59.163z" fill="#EF4D4D"/><path d="M159.9 447.272h31.98v63.96H159.9zm448.392 415.74c-157.566 0-296.967-76.336-384.432-193.638 4.541 11.033 9.594 21.81 15.03 32.331-.287 0-.67.064-.67-.032-4.798.448-9.467 1.44-14.36 1.44-7.323 0-14.263-1.184-21.33-2.143 10.68 22.802 22.993 44.644 37.192 65.111a231.663 231.663 0 0 0 35.85-5.245c-.064-.095.16-.16.511-.223a418.33 418.33 0 0 0 140.329 119.19v47.202h383.76V879.77a417.243 417.243 0 0 0 192.552-210.396c-87.466 117.302-226.899 193.639-384.432 193.639z"/><path d="M831.48 447.272h31.98v159.9h-31.98z" fill="#EAEAEA"/><path d="m767.52 671.133 63.96-63.96h31.98l63.96 63.96v191.88h-159.9z" fill="#434854"/><path d="M895.44 831.033H799.5v-143.91l31.948-31.98h32.012l31.98 31.98z" fill="#EACA44"/><path d="M607.62 31.948a31.98 31.98 0 1 0-63.96 0c0 56.477 27.471 95.94 27.471 95.94s36.49 51.488 36.49 95.94c0 44.964-21.46 78.223-21.46 78.223-13.527 17.717-13.24 28.239-.895 40.903 14.36 14.774 36.841 9.786 51.328-13.72 0 0 34.986-49.473 34.986-105.438 0-49.473-31.98-95.94-31.98-95.94s-31.98-47.938-31.98-95.908zm-191.88 0a31.98 31.98 0 1 0-63.96 0c0 56.477 27.471 95.94 27.471 95.94s36.49 51.488 36.49 95.94c0 44.964-21.46 78.223-21.46 78.223-13.527 17.717-13.24 28.239-.895 40.903 14.36 14.774 36.841 9.786 51.328-13.72 0 0 34.986-49.473 34.986-105.438 0-49.473-31.98-95.94-31.98-95.94s-31.98-47.938-31.98-95.908zm415.74 95.94s-31.98-47.97-31.98-95.94a31.98 31.98 0 1 0-63.96 0c0 56.477 27.471 95.94 27.471 95.94s36.49 51.488 36.49 95.94c0 44.964-21.46 78.223-21.46 78.223-13.527 17.717-13.239 28.239-.895 40.903 14.36 14.774 36.841 9.786 51.328-13.72 0 0 34.986-49.473 34.986-105.438 0-49.409-31.98-95.908-31.98-95.908z" fill="#EAEAEA"/></svg>