<svg width="1000" height="1000" viewBox="0 0 1000 1000" fill="none" xmlns="http://www.w3.org/2000/svg">
<g filter="url(#filter0_d_0_737)">
<path d="M446.317 655.984C446.317 673.875 431.814 688.379 413.923 688.379H76.3945C58.5035 688.379 44 673.875 44 655.984V194.837H446.317V655.984Z" fill="white"/>
<path d="M444.6 655.984C444.466 670.697 434.018 683.294 419.583 686.146C416.801 686.586 413.982 686.759 411.167 686.662H84.2115C81.8984 686.662 79.5852 686.662 77.272 686.662C68.916 686.897 60.8254 683.715 54.8696 677.849C48.9139 671.983 45.6083 663.942 45.7168 655.583C45.7119 654.015 45.7168 652.446 45.7168 650.877V194.837L44.0001 196.554H440.236C442.039 196.659 443.846 196.659 445.65 196.554C445.872 196.542 446.095 196.542 446.318 196.554L444.6 194.837V637.288C444.6 643.256 444.482 649.239 444.6 655.207C444.606 655.466 444.6 655.725 444.6 655.984C444.636 656.907 445.394 657.636 446.317 657.636C447.241 657.636 447.999 656.907 448.035 655.984V213.534C448.035 207.565 448.153 201.583 448.035 195.615C448.029 195.356 448.035 195.096 448.035 194.837C448.021 193.895 447.26 193.134 446.318 193.12H60.3545C55.1313 193.12 49.8905 192.994 44.6681 193.12C44.4458 193.126 44.2227 193.12 44.0002 193.12C43.0575 193.134 42.2966 193.895 42.2832 194.837V643.894C42.2832 647.905 42.2492 651.917 42.2832 655.928C42.3459 667.855 48.5575 678.906 58.714 685.16C64.413 688.517 70.9328 690.226 77.5463 690.096H404.041C412.192 690.096 420.149 690.541 427.85 687.121C440.066 681.556 447.942 669.407 448.035 655.984C448.058 653.774 444.624 653.772 444.6 655.984Z" fill="black"/>
<path d="M76.3945 134.762H413.923C431.814 134.762 446.317 149.266 446.317 167.157V194.938H44V167.157C44 149.266 58.5035 134.762 76.3945 134.762V134.762Z" fill="black"/>
<path d="M76.3947 136.48H404.602C410.791 136.48 417.224 136.027 423.196 137.905C435.602 141.917 444.159 153.28 444.588 166.312C444.772 173.464 444.6 180.64 444.6 187.794V194.938L446.318 193.221H60.3314C55.1728 193.221 49.8317 192.821 44.6842 193.221C44.4591 193.239 44.2263 193.221 44.0002 193.221L45.7172 194.938V172.433C45.5626 168.98 45.6991 165.519 46.125 162.089C48.6132 147.31 61.4071 136.485 76.3947 136.48C78.6034 136.46 78.6087 133.027 76.3947 133.045C61.91 133.164 49.0401 142.314 44.1691 155.955C42.7657 160.362 42.1278 164.977 42.2831 169.6V194.938C42.2966 195.881 43.0575 196.642 44.0002 196.655H429.986C435.199 196.655 440.421 196.753 445.633 196.655C445.861 196.651 446.09 196.655 446.318 196.655C447.26 196.642 448.021 195.881 448.035 194.938V173.429C448.035 170.693 448.138 167.928 447.975 165.194C447.612 158.87 445.493 152.771 441.857 147.584C435.412 138.512 424.993 133.1 413.866 133.045C412.548 133.036 411.229 133.045 409.911 133.045H94.7273C88.8747 133.045 83.0153 132.961 77.1627 133.045C76.9068 133.049 76.6506 133.045 76.3947 133.045C75.4702 133.078 74.7379 133.837 74.7379 134.762C74.7379 135.687 75.4702 136.446 76.3947 136.48Z" fill="black"/>
<path d="M137.129 472.317H332.926C336.436 472.37 339.93 471.833 343.263 470.731C354.831 466.771 362.759 456.087 363.197 443.867C363.634 431.647 356.491 420.423 345.235 415.646C341.404 414.053 337.29 413.253 333.141 413.292H139.571C138.763 413.292 137.955 413.288 137.147 413.292C126.591 413.27 116.827 418.888 111.54 428.025C106.254 437.162 106.251 448.427 111.531 457.568C116.812 466.708 126.573 472.332 137.129 472.317C139.339 472.331 139.342 468.896 137.129 468.883C127.772 468.882 119.133 463.87 114.489 455.747C109.845 447.624 109.909 437.635 114.656 429.572C119.403 421.509 128.105 416.607 137.461 416.726C140.974 416.722 144.487 416.722 148 416.726H322.207C325.881 416.726 329.555 416.726 333.229 416.726C337.415 416.672 341.555 417.603 345.315 419.443C355.867 424.685 361.595 436.351 359.289 447.906C356.984 459.462 347.217 468.036 335.461 468.827C332.542 469.01 329.582 468.882 326.66 468.882H137.129C136.202 468.912 135.467 469.672 135.467 470.6C135.467 471.527 136.202 472.287 137.129 472.317Z" fill="black"/>
<path d="M137.129 557.136H332.926C336.436 557.189 339.93 556.652 343.262 555.55C354.831 551.59 362.759 540.906 363.197 528.686C363.634 516.466 356.491 505.242 345.235 500.465C341.404 498.872 337.29 498.072 333.141 498.111H139.571C138.763 498.111 137.955 498.107 137.147 498.111C120.848 498.106 107.631 511.315 107.625 527.614C107.62 543.913 120.83 557.131 137.129 557.136C139.339 557.15 139.341 553.715 137.129 553.702C127.772 553.701 119.132 548.689 114.489 540.566C109.845 532.443 109.908 522.454 114.655 514.391C119.402 506.328 128.105 501.426 137.461 501.545C140.974 501.541 144.487 501.541 148 501.545H322.207C325.881 501.545 329.554 501.545 333.228 501.545C337.414 501.491 341.554 502.422 345.315 504.262C355.867 509.504 361.595 521.17 359.289 532.725C356.983 544.281 347.217 552.855 335.461 553.646C332.542 553.829 329.582 553.701 326.66 553.701H137.129C136.202 553.731 135.466 554.491 135.466 555.419C135.466 556.346 136.202 557.106 137.129 557.136Z" fill="black"/>
<path d="M345.452 613.305H132.686C129.804 613.305 126.914 613.244 124.032 613.305C123.908 613.307 123.785 613.305 123.661 613.305C122.739 613.341 122.011 614.099 122.011 615.022C122.011 615.944 122.739 616.702 123.661 616.739H336.427C339.309 616.739 342.199 616.799 345.081 616.739C345.204 616.736 345.328 616.739 345.452 616.739C346.373 616.702 347.102 615.944 347.102 615.022C347.102 614.099 346.373 613.341 345.452 613.305Z" fill="black"/>
<path d="M301.323 639.667H201.876C197.277 639.667 192.637 639.486 188.041 639.667C187.977 639.67 187.913 639.667 187.849 639.667C186.927 639.704 186.198 640.462 186.198 641.384C186.198 642.307 186.927 643.065 187.849 643.101H287.296C291.894 643.101 296.535 643.283 301.131 643.101C301.195 643.099 301.259 643.101 301.323 643.101C302.245 643.065 302.973 642.307 302.973 641.384C302.973 640.462 302.245 639.704 301.323 639.667Z" fill="black"/>
<circle cx="81.7286" cy="169.169" r="8.50541" fill="#EA2F2F"/>
<circle cx="114.719" cy="169.169" r="8.50541" fill="#FFC41F"/>
<circle cx="147.71" cy="169.169" r="8.50541" fill="#389B48"/>
<path d="M699.977 451.422L701.984 462.221C704.702 476.846 701.101 491.938 692.073 503.76L682.213 516.671L646.155 447.416" fill="black"/>
<path d="M698.321 451.878L700.085 461.368C701.191 466.969 701.413 472.708 700.743 478.378C699.816 485.475 697.405 492.296 693.667 498.399C691.633 501.536 689.438 504.565 687.092 507.474L680.731 515.804H683.696L671.49 492.361L652.061 455.046L647.637 446.549C646.616 444.588 643.652 446.323 644.672 448.283L656.878 471.726L676.307 509.041L680.731 517.538C681.047 518.053 681.609 518.367 682.213 518.367C682.818 518.367 683.379 518.053 683.696 517.538L689.276 510.23C691.432 507.407 693.705 504.629 695.662 501.661C703.383 489.794 706.223 475.404 703.589 461.494C702.941 457.984 702.288 454.474 701.633 450.966C701.23 448.796 697.919 449.715 698.321 451.878H698.321Z" fill="black"/>
<path d="M767.592 714.642L835.249 751.739L783.041 847.814C783.041 847.814 757.414 832.005 773.417 795.844C776.451 789.045 773.711 781.057 767.143 777.551C758.86 773.15 750.826 768.93 750.826 768.93" fill="#389B48"/>
<path d="M766.725 716.125L789.696 728.72L826.037 748.646L834.382 753.222L833.766 750.872L828.576 760.423L816.111 783.361L801.03 811.115L787.989 835.113L783.678 843.047C782.928 844.251 782.25 845.498 781.648 846.782C781.621 846.839 781.591 846.894 781.558 846.947L783.907 846.331C783.779 846.256 783.654 846.173 783.535 846.084C783.411 845.987 783.275 845.902 783.147 845.81C782.951 845.668 782.416 845.251 782.831 845.579C781.652 844.649 780.537 843.642 779.491 842.564C776.214 839.2 773.68 835.186 772.052 830.781C769.718 824.107 769.241 816.924 770.671 810C771.749 805.14 773.289 800.394 775.271 795.827C776.883 791.644 776.672 786.978 774.688 782.958C772.094 777.635 766.826 775.435 761.868 772.813C758.478 771.02 755.086 769.231 751.692 767.446C749.737 766.419 747.999 769.382 749.959 770.411C752.783 771.895 755.606 773.383 758.426 774.874C761.043 776.257 763.678 777.612 766.275 779.032C772.032 782.058 774.495 789 771.933 794.977C769.939 799.515 768.407 804.242 767.36 809.087C765.841 816.308 766.212 823.798 768.437 830.833C770.119 835.804 772.816 840.372 776.358 844.244C778.059 846.184 780.016 847.884 782.174 849.297C782.994 849.765 784.038 849.491 784.524 848.681L789.714 839.13L802.178 816.192L817.26 788.438L830.3 764.44C832.411 760.557 834.648 756.716 836.642 752.771C836.67 752.715 836.702 752.661 836.731 752.606C837.195 751.785 836.922 750.744 836.115 750.256L813.144 737.661L776.804 717.735L768.458 713.16C766.519 712.096 764.784 715.061 766.725 716.125Z" fill="black"/>
<path d="M799.297 816.564L771.059 801.885C761.362 830.584 778.826 844.827 782.413 847.387L782.382 847.444L794.579 855.381C797.015 853.958 802.939 851.811 804.774 848.464C807.194 844.051 802.614 841.539 805.034 837.127C807.453 832.714 812.034 835.226 814.454 830.814C816.873 826.402 812.293 823.889 814.713 819.476C817.133 815.063 821.713 817.575 824.133 813.162C826.553 808.749 821.973 806.237 824.393 801.823C826.813 797.41 831.393 799.923 833.813 795.511C836.233 791.097 831.653 788.585 834.073 784.171C836.493 779.757 841.074 782.269 843.495 777.855C845.915 773.441 841.335 770.929 843.756 766.514C845.234 763.819 847.516 763.705 849.621 763.021C850.545 762.725 851.195 761.896 851.264 760.929C851.332 759.961 850.805 759.049 849.932 758.626L844.389 755.943L834.788 751.776L799.297 816.564Z" fill="white"/>
<path d="M800.164 815.081L775.457 802.238L771.926 800.403C771.463 800.145 770.909 800.111 770.418 800.31C769.928 800.51 769.554 800.921 769.404 801.429C766.391 810.442 765.304 820.284 768.024 829.513C769.775 835.424 772.952 840.814 777.275 845.208C778.592 846.549 780.02 847.774 781.546 848.87L780.93 846.521L780.899 846.577C780.443 847.399 780.714 848.434 781.515 848.927L793.713 856.864C794.248 857.177 794.911 857.177 795.446 856.864C799.935 854.295 806.915 852.22 807.215 846.014C807.332 843.608 805.495 841.208 806.159 838.853C806.983 835.937 809.873 835.939 812.22 834.966C815.114 833.779 816.973 830.928 816.892 827.801C816.767 825.464 815.008 822.97 816.027 820.67C817.199 818.024 820.2 818.173 822.479 817.061C825.238 815.649 826.843 812.683 826.516 809.601C826.213 807.072 824.488 804.624 826.158 802.225C827.597 800.157 830.621 800.361 832.647 799.149C835.33 797.478 836.7 794.324 836.091 791.223C835.638 788.722 834.129 786.389 836.181 784.141C837.039 783.367 838.101 782.856 839.241 782.669C840.553 782.378 841.8 781.844 842.915 781.093C845.373 779.207 846.455 776.028 845.659 773.034C845.069 770.588 843.816 767.938 846.345 766.039C848.535 764.395 851.936 765.126 852.836 761.866C853.485 759.513 852.037 757.742 850.049 756.78C848.475 756.018 846.911 755.226 845.323 754.493C842.479 753.179 839.57 751.992 836.696 750.745L835.654 750.293C834.832 749.837 833.797 750.109 833.305 750.909L821.286 772.849L802.162 807.762L797.815 815.697C796.752 817.636 799.717 819.371 800.78 817.43L812.799 795.49L831.923 760.577L836.27 752.642L833.921 753.258L842.551 757.004C843.43 757.385 844.289 757.796 845.152 758.214L847.814 759.502C848.364 759.68 848.883 759.943 849.352 760.281C849.897 760.877 849.31 761.318 848.751 761.493C847.429 761.798 846.148 762.259 844.935 762.865C842.283 764.504 840.903 767.599 841.456 770.667C841.869 773.09 843.351 775.315 841.633 777.6C840.179 779.535 837.205 779.356 835.24 780.532C832.596 782.173 831.222 785.262 831.774 788.324C832.187 790.748 833.672 792.969 831.952 795.255C830.499 797.187 827.522 797.01 825.559 798.184C822.956 799.797 821.58 802.818 822.072 805.841C822.451 808.247 823.965 810.46 822.369 812.76C820.96 814.79 818.009 814.63 816 815.765C813.321 817.353 811.889 820.42 812.392 823.493C812.774 825.896 814.287 828.116 812.69 830.412C811.278 832.441 808.331 832.28 806.32 833.417C803.709 834.956 802.275 837.912 802.682 840.916C803.008 843.261 804.573 845.556 803.157 847.829C801.782 850.039 798.91 851.287 796.669 852.396C795.679 852.886 794.672 853.349 793.713 853.898H795.446L783.248 845.961L783.864 848.311L783.895 848.254C784.346 847.432 784.075 846.4 783.279 845.905C783.076 845.759 782.876 845.609 782.677 845.459C782.596 845.399 782.951 845.685 782.583 845.383C782.448 845.272 782.31 845.164 782.175 845.052C781.508 844.5 780.864 843.922 780.244 843.317C778.577 841.71 777.084 839.932 775.789 838.013C771.968 832.291 769.914 825.573 769.882 818.693C769.91 813.123 770.868 807.597 772.715 802.342L770.192 803.368L794.9 816.211L798.431 818.046C800.389 819.064 802.128 816.102 800.164 815.081Z" fill="black"/>
<path d="M782.32 807.656L788.309 795.854C789.079 794.339 789.862 792.829 790.617 791.307C792.412 787.768 792.889 783.707 791.962 779.849C790.924 775.722 788.329 772.156 784.722 769.897C783.704 769.261 782.61 768.731 781.552 768.167L767.528 760.686L756.476 754.789C754.527 753.75 752.789 756.713 754.742 757.755L777.911 770.115C781.597 772.082 785.332 773.755 787.448 777.629C789.298 781.056 789.516 785.131 788.043 788.736C787.464 790.137 786.686 791.478 786.001 792.828L779.355 805.922C778.357 807.889 781.319 809.629 782.32 807.656L782.32 807.656Z" fill="black"/>
<path d="M823.607 771.764C821.721 770.79 819.982 769.554 818.442 768.094C814.592 764.105 813.144 758.374 814.637 753.035C815.167 751.364 815.907 749.767 816.841 748.282L819.474 743.727C819.913 742.912 819.628 741.895 818.828 741.428C818.029 740.96 817.003 741.211 816.508 741.993C814.686 745.146 812.478 748.293 811.417 751.807C809.617 757.976 811.017 764.637 815.147 769.56C817.062 771.672 819.34 773.423 821.874 774.729C823.792 775.834 825.524 772.868 823.607 771.764Z" fill="black"/>
<path d="M775.438 787.214C778.414 786.486 781.55 786.777 784.341 788.041L775.438 787.214Z" fill="#A8542A"/>
<path d="M775.894 788.87C776.115 788.804 776.34 788.75 776.567 788.709C776.675 788.687 776.784 788.668 776.892 788.65C776.967 788.642 777.042 788.631 777.115 788.616C777.039 788.637 776.648 788.672 776.944 788.64C777.296 788.601 777.647 788.57 778.001 788.556C778.407 788.54 778.812 788.542 779.217 788.561C779.454 788.573 779.689 788.59 779.925 788.613C780.038 788.617 780.15 788.629 780.261 788.649C779.841 788.545 780.283 788.654 780.359 788.666C780.907 788.754 781.449 788.873 781.983 789.023C782.244 789.096 782.504 789.176 782.761 789.264C782.921 789.319 783.08 789.376 783.238 789.435C783.288 789.454 783.731 789.632 783.475 789.524C783.88 789.741 784.351 789.802 784.798 789.697C785.464 789.513 785.955 788.948 786.044 788.264C786.134 787.579 785.804 786.907 785.208 786.558C782.975 785.567 780.552 785.076 778.109 785.118C777.052 785.124 775.999 785.272 774.981 785.559C774.067 785.811 773.53 786.757 773.782 787.671C774.034 788.586 774.98 789.123 775.894 788.87L775.894 788.87Z" fill="black"/>
<path d="M772.712 781.235C774.638 778.851 777.308 777.182 780.295 776.495L772.712 781.235Z" fill="#A8542A"/>
<path d="M774.195 782.102C774.389 781.825 773.951 782.404 774.05 782.286C774.164 782.151 774.274 782.013 774.392 781.881C774.811 781.416 775.265 780.984 775.749 780.587C775.832 780.519 775.917 780.455 775.999 780.386C775.588 780.732 775.814 780.528 775.918 780.45C776.108 780.307 776.302 780.17 776.5 780.037C776.911 779.761 777.336 779.506 777.773 779.274C777.995 779.156 778.22 779.044 778.448 778.937C778.574 778.855 778.712 778.793 778.857 778.754C778.622 778.852 778.591 778.865 778.765 778.794C778.837 778.765 778.91 778.736 778.982 778.708C779.561 778.488 780.151 778.302 780.751 778.151C781.664 777.897 782.199 776.953 781.947 776.04C781.695 775.127 780.752 774.59 779.838 774.839C777.473 775.444 775.269 776.56 773.381 778.109C772.564 778.76 771.84 779.52 771.23 780.368C770.756 781.188 771.031 782.236 771.846 782.717C772.668 783.171 773.701 782.9 774.195 782.101L774.195 782.102Z" fill="black"/>
<path d="M765.821 776.549C766.537 773.569 768.231 770.915 770.633 769.012L765.821 776.549Z" fill="#A8542A"/>
<path d="M767.477 777.006C767.52 776.772 767.577 776.542 767.647 776.315C767.72 776.063 767.804 775.813 767.894 775.567C767.95 775.415 768.012 775.265 768.071 775.114C768.174 774.852 767.873 775.567 768.048 775.174C768.087 775.087 768.126 775.001 768.167 774.916C768.56 774.083 769.033 773.291 769.578 772.55C769.622 772.491 769.666 772.431 769.711 772.372C769.568 772.556 769.536 772.598 769.615 772.497C769.7 772.393 769.783 772.287 769.87 772.184C770.049 771.969 770.235 771.759 770.427 771.555C770.872 771.083 771.346 770.639 771.846 770.226C772.514 769.554 772.514 768.469 771.846 767.797C771.166 767.152 770.099 767.152 769.418 767.797C767.638 769.265 766.199 771.103 765.201 773.182C764.728 774.102 764.379 775.081 764.165 776.092C763.936 777.004 764.465 777.934 765.364 778.204C766.277 778.445 767.215 777.912 767.476 777.005L767.477 777.006Z" fill="black"/>
<path d="M757.679 772.146C758.394 769.166 760.088 766.512 762.49 764.608L757.679 772.146Z" fill="#A8542A"/>
<path d="M759.335 772.602C759.378 772.369 759.435 772.138 759.504 771.912C759.578 771.659 759.661 771.41 759.752 771.163C759.808 771.011 759.869 770.861 759.929 770.711C760.031 770.448 759.73 771.164 759.906 770.77C759.944 770.684 759.984 770.598 760.024 770.512C760.417 769.68 760.89 768.888 761.436 768.147C761.48 768.087 761.524 768.028 761.569 767.969C761.425 768.153 761.393 768.194 761.473 768.094C761.558 767.989 761.641 767.884 761.727 767.78C761.907 767.565 762.092 767.356 762.284 767.152C762.729 766.679 763.203 766.236 763.704 765.823C764.371 765.151 764.371 764.066 763.704 763.394C763.023 762.749 761.956 762.749 761.276 763.394C759.496 764.862 758.057 766.7 757.058 768.779C756.585 769.699 756.237 770.678 756.022 771.689C755.794 772.601 756.322 773.531 757.222 773.801C758.135 774.042 759.072 773.509 759.334 772.602H759.335Z" fill="black"/>
<path d="M548.677 773.74L526.476 847.638L421.638 816.572C421.638 816.572 431.766 788.215 470.466 796.341C477.748 797.893 484.991 793.55 487.053 786.396C489.633 777.378 492.089 768.642 492.089 768.642" fill="#389B48"/>
<path d="M547.022 773.284L539.484 798.374L527.559 838.066L524.82 847.181L526.932 845.982L516.51 842.893L491.48 835.476L461.195 826.502L435.008 818.743L426.351 816.177C425.016 815.698 423.655 815.294 422.274 814.969C422.213 814.955 422.153 814.937 422.094 814.916L423.293 817.028C423.32 816.954 423.391 816.655 423.449 816.633C423.603 816.574 423.283 817.004 423.38 816.796C423.418 816.715 423.451 816.631 423.488 816.549C423.585 816.337 423.682 816.125 423.783 815.915C424.406 814.628 425.116 813.384 425.907 812.192C428.389 808.472 431.569 805.27 435.272 802.763C440.962 799.074 447.535 796.972 454.31 796.675C458.927 796.441 463.556 796.758 468.098 797.62C470.491 798.209 472.962 798.412 475.418 798.224C480.362 797.615 484.731 794.717 487.214 790.4C488.776 787.671 489.396 784.452 490.248 781.456C491.419 777.338 492.584 773.219 493.744 769.098C494.343 766.967 491.031 766.057 490.433 768.185C489.493 771.528 488.548 774.87 487.599 778.211C486.19 783.174 485.441 788.93 481.113 792.299C479.44 793.589 477.473 794.443 475.388 794.783C472.945 795.188 470.651 794.587 468.259 794.174C463.66 793.334 458.98 793.021 454.309 793.241C442.063 793.936 430.668 799.449 423.544 809.574C422.072 811.587 420.874 813.786 419.981 816.115C419.742 817.028 420.274 817.965 421.181 818.227L431.603 821.315L456.633 828.732L486.918 837.707L513.105 845.466C517.333 846.719 521.556 848.185 525.839 849.24C525.899 849.254 525.959 849.275 526.019 849.293C526.931 849.529 527.866 848.998 528.131 848.094L535.669 823.004L547.594 783.312L550.332 774.196C550.969 772.075 547.656 771.169 547.02 773.284L547.022 773.284Z" fill="black"/>
<path d="M565.874 455.528L483.419 765.14L565.31 785.739C565.31 785.739 622.391 559.317 628.547 524.721C634.703 490.125 638.85 442.998 638.85 442.998" fill="#458DC9"/>
<path d="M564.219 455.072L562.014 463.352L556.012 485.886L547.136 519.214L536.307 559.878L524.446 604.417L512.472 649.373L501.31 691.287L491.879 726.698L485.102 752.148C484.036 756.15 482.889 760.14 481.902 764.163C481.859 764.337 481.81 764.51 481.763 764.684C481.525 765.596 482.057 766.533 482.963 766.796L510.678 773.767L554.799 784.865L564.854 787.394C565.767 787.631 566.703 787.1 566.966 786.195C567.702 783.276 568.437 780.357 569.17 777.437C571.131 769.635 573.088 761.833 575.042 754.029C577.892 742.647 580.735 731.262 583.572 719.876C586.938 706.365 590.293 692.852 593.638 679.335C597.196 664.951 600.738 650.563 604.264 636.17C607.637 622.391 610.986 608.606 614.31 594.815C617.179 582.893 620.009 570.963 622.801 559.023C624.802 550.42 626.788 541.812 628.614 533.169C631.382 520.064 633.243 506.778 634.984 493.503C637.072 477.589 638.852 461.637 640.326 445.647C640.408 444.764 640.489 443.881 640.568 442.998C640.762 440.797 637.326 440.81 637.134 442.998C636.095 454.787 634.821 466.56 633.437 478.313C631.479 494.934 629.45 511.645 626.167 528.065C624.629 535.757 622.875 543.408 621.121 551.054C618.526 562.357 615.87 573.647 613.153 584.922C609.93 598.394 606.673 611.857 603.383 625.313C599.886 639.641 596.369 653.965 592.831 668.283C589.417 682.116 585.989 695.946 582.548 709.772C579.567 721.756 576.578 733.738 573.582 745.717C571.385 754.498 569.185 763.278 566.981 772.056C565.928 776.246 564.57 780.473 563.795 784.726C563.76 784.913 563.701 785.098 563.654 785.282L565.766 784.083L538.051 777.112L493.93 766.014L483.875 763.485L485.074 765.597L487.279 757.317L493.28 734.783L502.156 701.455L512.986 660.791L524.847 616.252L536.82 571.296L547.983 529.382L557.413 493.97L564.191 468.52C565.256 464.518 566.404 460.528 567.391 456.506C567.433 456.332 567.483 456.158 567.529 455.985C568.099 453.847 564.787 452.935 564.218 455.072L564.219 455.072Z" fill="black"/>
<path d="M612.958 459.435L595.882 607.304C590.979 651.573 609.552 695.44 645.327 721.972C649.574 725.135 654.037 727.997 658.685 730.535L744.391 777.111L785.689 703.457C785.689 703.457 714.896 658.752 683.114 643.763L695.196 525.414C696.5 512.636 695.29 499.727 691.632 487.414L674.2 439.402H620.398" fill="#458DC9"/>
<path d="M611.241 459.435L609.4 475.375L605.074 512.839L599.925 557.431L595.738 593.683C594.994 600.131 594.081 606.595 593.658 613.074C592.186 636.149 596.951 659.194 607.453 679.793C618.473 701.451 635.605 719.399 656.726 731.416C663.366 735.13 670.096 738.691 676.781 742.323L715.221 763.213L742.114 777.827L743.525 778.594C744.346 779.057 745.386 778.784 745.874 777.978L759.876 753.007L782.08 713.406L787.173 704.324C787.631 703.503 787.359 702.466 786.557 701.975C778.013 696.581 769.425 691.258 760.792 686.006C743.857 675.651 726.824 665.437 709.509 655.727C701.124 651.026 692.676 646.39 683.981 642.28L684.832 643.763L687.479 617.833L692.713 566.559L696.604 528.445C697.434 521.286 697.583 514.065 697.05 506.877C696.255 498.177 694.315 489.619 691.28 481.427L676.239 439.999L675.857 438.947C675.635 438.214 674.967 437.705 674.201 437.686H620.399C619.477 437.723 618.748 438.481 618.748 439.403C618.748 440.326 619.477 441.084 620.399 441.12H674.2L672.545 439.86L686.221 477.527C688.367 483.439 690.56 489.151 691.877 495.324C694.003 505.629 694.5 516.203 693.351 526.661L689.891 560.558L684.611 612.281L682.509 632.879C682.155 636.338 681.646 639.82 681.446 643.292C681.436 643.449 681.413 643.606 681.398 643.762C681.385 644.376 681.712 644.946 682.248 645.245C698.898 653.113 714.844 662.561 730.691 671.91C745.801 680.824 760.797 689.927 775.68 699.22C778.733 701.118 781.78 703.025 784.823 704.939L784.207 702.59L770.206 727.561L748.001 767.162L742.909 776.244L745.258 775.628L725.792 765.051L687.715 744.358L660.922 729.798C644.12 720.721 629.693 707.813 618.811 692.119C605.716 673.074 598.16 650.769 596.983 627.686C596.501 618.071 597.446 608.636 598.544 599.124L602.281 566.766L607.334 523.013L611.993 482.665L614.556 460.469L614.676 459.435C614.929 457.243 611.492 457.261 611.241 459.435L611.241 459.435Z" fill="black"/>
<path d="M570.974 763.254L562.869 761.193L543.279 756.211L519.678 750.208L499.167 744.991C495.862 744.151 492.561 743.178 489.226 742.463C489.177 742.452 489.129 742.438 489.08 742.426C486.937 741.881 486.023 745.192 488.167 745.737L496.272 747.799L515.862 752.781L539.463 758.784L559.974 764C563.279 764.841 566.58 765.814 569.915 766.529C569.964 766.539 570.012 766.554 570.061 766.566C572.203 767.111 573.117 763.8 570.974 763.254V763.254Z" fill="black"/>
<path d="M767.344 692.739L763.246 700.053L753.402 717.622L741.489 738.885L731.181 757.282C729.509 760.265 727.715 763.209 726.155 766.252C726.132 766.297 726.105 766.34 726.081 766.384C724.999 768.314 727.964 770.048 729.046 768.117L733.144 760.803L742.988 743.234L754.902 721.971L765.21 703.575C766.881 700.592 768.675 697.647 770.236 694.604C770.259 694.56 770.285 694.517 770.31 694.473C771.391 692.542 768.426 690.809 767.344 692.739L767.344 692.739Z" fill="black"/>
<path d="M455.588 825.967L464.067 795.292C433.978 791.781 423.682 811.827 421.925 815.868L421.863 815.849L416.639 829.432C418.537 831.518 421.871 836.866 425.526 837.964C430.346 839.413 431.849 834.41 436.67 835.858C441.49 837.307 439.986 842.309 444.805 843.758C449.624 845.206 451.128 840.203 455.948 841.651C460.768 843.1 459.265 848.103 464.085 849.551C468.905 851 470.409 845.997 475.229 847.445C480.05 848.894 478.545 853.896 483.364 855.345C488.185 856.793 489.689 851.79 494.51 853.239C499.331 854.687 497.828 859.69 502.649 861.14C507.47 862.589 508.974 857.585 513.796 859.034C516.739 859.919 517.326 862.128 518.433 864.044C518.915 864.886 519.861 865.349 520.821 865.215C521.782 865.08 522.564 864.375 522.797 863.433L524.267 857.452L526.344 847.194L455.588 825.967Z" fill="white"/>
<path d="M457.244 826.424L464.662 799.584L465.722 795.749C465.853 795.233 465.742 794.686 465.419 794.262C465.097 793.839 464.599 793.586 464.067 793.575C454.632 792.504 444.844 793.528 436.391 798.087C431.025 801.007 426.452 805.19 423.066 810.275C422.053 811.77 421.175 813.351 420.442 815.001L422.382 814.212L422.32 814.194C421.409 813.965 420.479 814.493 420.208 815.393L414.984 828.976C414.818 829.571 414.987 830.21 415.425 830.646C418.977 834.622 423.093 841.856 429.558 839.547C431.844 838.731 433.796 836.677 436.373 837.566C438.773 838.393 439.266 841.239 440.726 843.039C442.673 845.362 445.826 846.286 448.719 845.38C450.921 844.644 452.861 842.586 455.331 843.262C457.896 843.965 458.361 846.667 459.795 848.56C461.655 850.993 464.805 852.057 467.76 851.249C469.997 850.597 471.98 848.423 474.45 849.012C477.088 849.64 477.528 852.249 478.94 854.18C480.758 856.686 483.917 857.833 486.919 857.078C489.089 856.494 491.051 854.347 493.416 854.735C496.205 855.193 496.688 857.767 498.078 859.772C499.82 862.327 502.932 863.576 505.957 862.934C508.203 862.436 510.164 860.207 512.558 860.506C515.958 860.931 515.783 864.455 518.09 866.161C519.209 866.95 520.646 867.133 521.927 866.65C523.208 866.167 524.167 865.081 524.487 863.75C524.99 861.971 525.375 860.149 525.814 858.353C526.575 855.24 527.108 852.059 527.744 848.919L528.001 847.65C528.229 846.738 527.701 845.808 526.802 845.538L502.84 838.349L464.711 826.911L456.044 824.311C453.923 823.675 453.016 826.988 455.131 827.623L479.093 834.812L517.221 846.25L525.888 848.85L524.688 846.738L522.728 856.419C522.493 857.579 522.187 858.723 521.904 859.872C521.755 860.48 521.455 863.803 520.333 863.516C519.559 863.319 519.057 861.505 518.666 860.865C517.928 859.579 516.829 858.538 515.506 857.871C512.636 856.512 510.001 857.128 507.355 858.605C505.351 859.724 502.96 860.316 501.235 858.284C500.601 857.393 500.053 856.444 499.6 855.449C498.964 854.244 498.04 853.215 496.91 852.453C494.435 850.941 491.327 850.917 488.828 852.392C486.784 853.465 484.673 854.747 482.501 853.031C481.705 852.262 481.08 851.335 480.666 850.309C480.125 849.15 479.361 848.11 478.418 847.247C476.108 845.348 472.904 844.966 470.213 846.27C468.058 847.253 466.229 848.876 463.784 847.591C461.752 846.523 461.248 843.73 459.789 842.079C457.754 839.895 454.618 839.123 451.801 840.113C449.606 840.915 447.747 842.85 445.261 842.102C442.879 841.386 442.407 838.825 441.094 837.023C439.304 834.556 436.209 833.402 433.24 834.094C431.089 834.622 429.204 836.701 426.907 836.502C424.068 836.255 421.884 833.233 420.255 831.197C419.458 830.202 418.703 829.17 417.853 828.218L418.294 829.889L423.518 816.306L421.406 817.505L421.468 817.524C422.219 817.727 423.012 817.404 423.407 816.735C427.653 807.011 436.867 800.03 447.338 797.648C452.839 796.497 458.494 796.281 464.067 797.009L462.411 794.836L454.992 821.675L453.932 825.511C453.714 826.412 454.252 827.324 455.146 827.571C456.04 827.817 456.969 827.309 457.244 826.424Z" fill="black"/>
<path d="M460.849 807.532L473.639 810.934C475.278 811.37 476.914 811.821 478.558 812.242C482.449 813.256 486.576 812.83 490.179 811.044C493.976 809.115 496.878 805.79 498.275 801.766C498.664 800.66 498.951 799.512 499.275 798.386L503.687 783.066L507.121 771.142C507.733 769.014 504.421 768.106 503.809 770.229L496.592 795.29C496.171 796.753 495.75 798.215 495.329 799.678C494.614 802.3 493.124 804.646 491.054 806.406C488.117 808.839 484.255 809.85 480.502 809.168C478.97 808.869 477.461 808.396 475.954 807.995L461.762 804.221C459.624 803.652 458.712 806.964 460.85 807.532H460.849Z" fill="black"/>
<path d="M504.492 840.337C505.048 838.327 505.88 836.404 506.964 834.623C510.073 829.995 515.412 827.374 520.975 827.747C522.766 827.93 524.526 828.341 526.212 828.972L531.112 830.566C533.218 831.251 534.121 827.935 532.025 827.254C528.53 826.117 524.999 824.633 521.307 824.336C514.96 823.891 508.809 826.633 504.897 831.65C503.209 834.002 501.95 836.633 501.18 839.424C500.499 841.531 503.813 842.434 504.492 840.337V840.337Z" fill="black"/>
<path d="M479.328 796.521C480.66 799.28 481.028 802.408 480.373 805.401L479.328 796.521Z" fill="#A8542A"/>
<path d="M477.845 797.387C477.955 797.581 478.034 797.789 478.133 797.988C477.836 797.389 478.062 797.821 478.125 797.984C478.178 798.125 478.23 798.267 478.278 798.409C478.39 798.739 478.489 799.072 478.574 799.41C478.676 799.814 478.761 800.223 478.827 800.636C478.848 800.762 478.967 801.084 478.834 800.655C478.86 800.777 478.874 800.902 478.876 801.027C478.9 801.265 478.918 801.504 478.93 801.743C478.957 802.285 478.954 802.829 478.92 803.371C478.902 803.676 478.873 803.981 478.836 804.285C478.867 804.028 478.84 804.245 478.818 804.381C478.788 804.57 478.753 804.758 478.717 804.946C478.554 805.537 478.718 806.171 479.149 806.608C479.58 807.045 480.211 807.219 480.805 807.064C481.399 806.91 481.865 806.45 482.028 805.858C482.518 803.458 482.477 800.979 481.91 798.595C481.677 797.57 481.307 796.581 480.81 795.654C480.332 794.836 479.28 794.56 478.461 795.038C477.642 795.517 477.366 796.569 477.845 797.388V797.387Z" fill="black"/>
<path d="M484.609 792.61C487.341 793.998 489.53 796.262 490.823 799.041L484.609 792.61Z" fill="#A8542A"/>
<path d="M483.743 794.093C484.241 794.319 484.716 794.593 485.161 794.911C485.264 794.981 485.366 795.053 485.467 795.126C485.516 795.162 485.566 795.198 485.615 795.235C485.648 795.26 485.682 795.286 485.715 795.311C485.89 795.441 485.52 795.159 485.522 795.161C485.752 795.391 486.036 795.58 486.278 795.799C486.847 796.315 487.375 796.876 487.854 797.476C488.084 797.764 487.648 797.199 487.872 797.498C487.948 797.6 488.024 797.704 488.097 797.808C488.241 798.01 488.379 798.216 488.512 798.426C488.815 798.904 489.092 799.399 489.341 799.907C489.823 800.721 490.87 800.996 491.69 800.523C492.489 800.03 492.76 798.996 492.306 798.174C490.932 795.335 488.737 792.974 486.006 791.396C485.834 791.298 485.657 791.208 485.476 791.128C485.071 790.911 484.6 790.85 484.153 790.955C483.722 791.078 483.355 791.36 483.126 791.744C482.895 792.145 482.832 792.621 482.954 793.067C483.066 793.503 483.351 793.873 483.743 794.094L483.743 794.093Z" fill="black"/>
<path d="M487.758 784.895C490.821 784.974 493.77 786.079 496.132 788.032L487.758 784.895Z" fill="#A8542A"/>
<path d="M487.758 786.612C487.985 786.606 488.212 786.613 488.439 786.632C488.561 786.641 488.684 786.652 488.806 786.665C488.864 786.671 488.921 786.678 488.979 786.684C489.278 786.716 488.533 786.616 488.823 786.663C489.177 786.721 489.528 786.782 489.878 786.862C490.28 786.955 490.677 787.066 491.07 787.194C491.279 787.263 491.486 787.335 491.691 787.413C491.811 787.449 491.928 787.495 492.041 787.55C491.676 787.338 492.011 787.538 492.108 787.582C492.619 787.813 493.117 788.072 493.598 788.36C493.858 788.515 494.113 788.678 494.364 788.849C494.472 788.923 494.579 788.998 494.685 789.075C494.735 789.111 495.161 789.438 494.917 789.246C495.248 789.555 495.679 789.734 496.132 789.749C496.826 789.749 497.452 789.331 497.718 788.689C497.984 788.048 497.837 787.309 497.346 786.818C495.455 785.279 493.251 784.172 490.888 783.574C489.867 783.302 488.814 783.168 487.758 783.178C486.815 783.185 486.054 783.951 486.054 784.895C486.054 785.838 486.815 786.605 487.758 786.612V786.612Z" fill="black"/>
<path d="M490.37 776.014C493.433 776.093 496.382 777.198 498.743 779.151L490.37 776.014Z" fill="#A8542A"/>
<path d="M490.37 777.731C490.597 777.725 490.824 777.732 491.051 777.751C491.173 777.76 491.296 777.771 491.418 777.784C491.476 777.79 491.533 777.798 491.591 777.803C491.889 777.835 491.145 777.735 491.435 777.782C491.788 777.84 492.14 777.901 492.489 777.981C492.892 778.074 493.289 778.185 493.682 778.314C493.891 778.382 494.098 778.454 494.303 778.532C494.423 778.568 494.54 778.614 494.653 778.669C494.288 778.457 494.623 778.657 494.72 778.701C495.231 778.932 495.728 779.191 496.21 779.479C496.47 779.634 496.725 779.797 496.976 779.968C497.084 780.042 497.191 780.118 497.297 780.194C497.347 780.23 497.773 780.557 497.529 780.365C497.86 780.674 498.291 780.853 498.743 780.868C499.438 780.868 500.064 780.45 500.33 779.808C500.595 779.167 500.449 778.428 499.958 777.937C498.067 776.399 495.863 775.292 493.499 774.693C492.479 774.421 491.426 774.288 490.37 774.297C489.422 774.297 488.653 775.066 488.653 776.014C488.653 776.962 489.422 777.731 490.37 777.731Z" fill="black"/>
<path d="M667.026 345.016C671.446 343.993 673.191 333.032 672.911 320.338L652.428 328.969C655.619 339.427 662.341 346.1 667.026 345.016Z" fill="black"/>
<path d="M667.482 346.672C671.147 345.721 672.542 341.213 673.283 337.976C674.448 332.174 674.899 326.25 674.627 320.338C674.607 319.347 673.525 318.231 672.454 318.683L654.573 326.216L651.972 327.313C651.071 327.582 650.543 328.513 650.772 329.425C652.167 334.379 654.696 338.942 658.158 342.75C660.558 345.232 663.884 347.424 667.483 346.672C669.645 346.22 668.73 342.909 666.57 343.36C666.18 343.411 665.785 343.414 665.395 343.367C664.829 343.259 664.283 343.068 663.775 342.799C662.412 342.049 661.193 341.062 660.177 339.885C657.345 336.581 655.266 332.7 654.084 328.511L652.885 330.623L670.765 323.089L673.367 321.993L671.193 320.337C671.426 325.619 671.084 330.911 670.174 336.119C669.884 337.874 669.358 339.581 668.609 341.194C668.347 341.753 668.003 342.271 667.59 342.73C667.324 343.041 666.967 343.261 666.569 343.359C664.432 343.915 665.338 347.229 667.482 346.672Z" fill="black"/>
<path d="M584.34 373.581L519.434 430.077L505.355 441.591C486.181 456.839 471.472 456.021 438.507 434.634L348.641 357.838L370.2 323.706L475.512 392.643L480.54 387.03L549.759 307.309C556.455 299.597 566.167 295.167 576.38 295.167H594.788" fill="#A8542A"/>
<path d="M583.126 372.367L569.416 384.3L541.781 408.355L520.495 426.883C515.378 431.336 510.05 435.544 504.8 439.838C500.331 443.492 495.358 446.843 489.851 448.699C483.713 450.661 477.132 450.761 470.937 448.986C462.011 446.637 453.755 442.034 445.921 437.271C443.084 435.675 440.382 433.85 437.842 431.813L420.2 416.737L392.452 393.025L365.726 370.186L350.578 357.242L349.855 356.624L350.124 358.705L369.042 328.753L371.683 324.572L369.334 325.188L379.817 332.05L404.988 348.527L435.432 368.456L461.732 385.674C465.957 388.439 470.105 391.456 474.464 394.009C474.526 394.045 474.585 394.087 474.645 394.127C475.32 394.516 476.172 394.406 476.726 393.858C480.749 389.367 484.714 384.836 488.667 380.283L512.341 353.017L538.289 323.132C542.515 318.266 546.718 313.38 550.965 308.533C557.411 301.149 566.728 296.904 576.53 296.885C582.059 296.874 587.588 296.885 593.116 296.885H594.787C595.709 296.849 596.437 296.091 596.437 295.168C596.437 294.246 595.709 293.488 594.787 293.451H578.855C575.799 293.382 572.743 293.587 569.724 294.062C564.252 295.049 559.078 297.272 554.596 300.561C551.639 302.857 548.947 305.475 546.572 308.368L538.913 317.189L513.613 346.327L488.613 375.12C484.586 379.758 480.583 384.414 476.485 388.988L474.297 391.43L476.378 391.161L465.896 384.299L440.724 367.822L410.281 347.893L383.98 330.676C379.755 327.91 375.606 324.894 371.247 322.341C371.185 322.305 371.127 322.262 371.067 322.223C370.246 321.759 369.205 322.032 368.717 322.839L349.799 352.791L347.158 356.972C346.768 357.647 346.878 358.499 347.427 359.053L358.354 368.391L383.531 389.905L412.203 414.407L433.024 432.199C434.397 433.373 435.755 434.569 437.146 435.722C437.565 436.056 438.004 436.365 438.461 436.647C440.972 438.265 443.507 439.847 446.076 441.372C450.446 444.012 454.965 446.396 459.611 448.512C466.429 451.553 473.786 453.949 481.34 453.706C487.955 453.355 494.357 451.249 499.888 447.603C504.312 444.637 508.547 441.397 512.566 437.901C515.331 435.64 518.149 433.432 520.86 431.107C526.377 426.374 531.828 421.56 537.311 416.788L565.429 392.313L584.583 375.64L585.554 374.796C587.225 373.342 584.787 370.922 583.126 372.367V372.367Z" fill="black"/>
<path d="M598.649 367.285L534.887 428.36L520.809 439.874C501.635 455.122 461.051 472.81 428.086 451.423L359.403 389.608L397.101 339.733L475.511 392.645L480.54 387.031L549.759 307.31C556.455 299.598 566.167 295.169 576.38 295.169H594.788" fill="#E680A2"/>
<path d="M597.435 366.071L586.006 377.019L561.75 400.252L539.717 421.357L534.254 426.59C532.611 428.164 530.76 429.529 529.001 430.968C525.647 433.71 522.347 436.538 518.921 439.19C512.961 443.741 506.513 447.616 499.697 450.742C483.941 458.078 465.707 461.946 448.493 458.131C443.842 457.112 439.332 455.532 435.061 453.425C432.933 452.494 430.913 451.335 429.035 449.969C427.42 448.63 425.903 447.15 424.344 445.747L402.915 426.461L377.221 403.338L361.383 389.083L360.617 388.394L360.886 390.474L373.685 373.541L393.915 346.776L398.584 340.599L396.235 341.215L404.024 346.471L422.734 359.096L445.376 374.375L464.962 387.593C468.122 389.725 471.22 392.097 474.506 394.033C474.554 394.061 474.599 394.095 474.645 394.126C475.32 394.517 476.173 394.407 476.726 393.858C480.711 389.409 484.64 384.922 488.555 380.412L512.282 353.085L538.337 323.078C542.546 318.23 546.735 313.362 550.966 308.532C557.416 301.144 566.741 296.898 576.549 296.885C582.05 296.875 587.552 296.885 593.053 296.885H594.788C595.71 296.848 596.439 296.09 596.439 295.168C596.439 294.245 595.71 293.487 594.788 293.451H578.908C575.886 293.384 572.864 293.579 569.876 294.034C564.409 294.996 559.234 297.191 554.743 300.453C551.718 302.778 548.969 305.442 546.55 308.393L538.885 317.221L513.621 346.318L488.538 375.207C484.541 379.81 480.566 384.432 476.498 388.973L474.297 391.43L476.378 391.161L468.589 385.905L449.879 373.28L427.237 358.001L407.65 344.784C404.491 342.652 401.393 340.279 398.106 338.344C398.058 338.315 398.014 338.281 397.967 338.25C397.146 337.794 396.111 338.066 395.618 338.866L382.819 355.8L362.589 382.563L357.92 388.741C357.526 389.415 357.636 390.27 358.189 390.821L369.665 401.15L394.491 423.493L418.259 444.884L425.246 451.172C428.047 453.563 431.188 455.524 434.567 456.988C451.522 464.93 470.868 464.372 488.443 458.796C501.552 454.59 513.742 447.931 524.365 439.173C529.163 435.249 534.105 431.488 538.583 427.198L557.667 408.917L582.946 384.704L599.063 369.266L599.863 368.5C601.462 366.968 599.032 364.542 597.435 366.071V366.071Z" fill="black"/>
<path d="M594.787 294.959L654.221 296.335C663.278 295.697 668.275 299.108 673.1 312.127C673.1 312.127 695.127 421.318 702.333 465.154C687.65 451.408 564.594 461.663 564.594 461.663L578.221 326.506" fill="#E680A2"/>
<path d="M594.787 296.676L608.009 296.982L634.285 297.591L653.052 298.025C655.486 298.082 657.903 297.816 660.289 298.469C664.978 299.752 667.682 304.056 669.644 308.233C670.557 310.023 671.248 311.916 671.704 313.873C672.043 315.559 672.381 317.244 672.719 318.93C674.036 325.495 675.346 332.061 676.65 338.629C678.533 348.108 680.405 357.59 682.265 367.074C684.403 377.979 686.522 388.889 688.621 399.802C690.701 410.626 692.748 421.456 694.764 432.293C696.475 441.526 698.158 450.766 699.739 460.023C700.057 461.885 700.37 463.747 700.677 465.611L703.547 463.941C701.428 461.98 698.536 460.961 695.808 460.185C691.756 459.109 687.626 458.352 683.456 457.922C672.268 456.724 661.02 456.174 649.769 456.275C637.117 456.221 624.464 456.56 611.824 457.088C601.193 457.532 590.568 458.111 579.951 458.825C576.525 459.052 573.1 459.294 569.676 459.549C568.049 459.583 566.426 459.709 564.813 459.928C564.74 459.938 564.667 459.944 564.594 459.946L566.311 461.663L567.667 448.212L570.924 415.912L574.863 376.844L578.266 343.089L579.386 331.979C579.561 330.24 579.847 328.474 579.915 326.727C579.918 326.654 579.93 326.579 579.938 326.506C580.159 324.309 576.724 324.325 576.504 326.506L575.147 339.957L571.891 372.257L567.952 411.325L564.549 445.08L563.429 456.19C563.253 457.929 562.967 459.695 562.899 461.442C562.896 461.515 562.884 461.59 562.877 461.663C562.879 462.61 563.647 463.377 564.594 463.38C568.702 463.038 572.814 462.746 576.926 462.463C586.882 461.778 596.844 461.205 606.814 460.742C619.293 460.167 631.783 459.77 644.276 459.711C655.86 459.656 667.487 459.816 679.029 460.887C683.339 461.228 687.622 461.846 691.853 462.737C693.544 463.094 695.212 463.552 696.848 464.11C697.182 464.226 697.514 464.351 697.844 464.479C697.932 464.513 698.408 464.712 698.159 464.606C697.915 464.502 698.465 464.743 698.548 464.782C699.101 465.034 699.637 465.322 700.154 465.643C700.378 465.784 700.594 465.937 700.809 466.091C700.397 465.796 700.937 466.2 701.119 466.368C701.677 466.893 702.514 466.989 703.177 466.603C703.839 466.218 704.17 465.443 703.989 464.698C702.554 455.975 700.992 447.273 699.402 438.576C697.446 427.881 695.443 417.194 693.394 406.516C691.262 395.345 689.104 384.178 686.919 373.017C684.966 363.019 682.999 353.024 681.017 343.032C679.565 335.705 678.105 328.379 676.64 321.055C676.022 317.97 675.584 314.772 674.768 311.731C674.055 309.439 673.106 307.228 671.938 305.131C670.744 302.662 669.131 300.42 667.168 298.505C665.504 296.953 663.496 295.816 661.309 295.188C658.988 294.646 656.599 294.454 654.221 294.618C649.724 294.7 645.189 294.409 640.693 294.305L614.27 293.693L595.747 293.264L594.788 293.242C592.577 293.191 592.578 296.625 594.788 296.676H594.787Z" fill="black"/>
<path d="M354.3 362.675L331.866 349.143C328.738 347.256 325.916 344.906 323.495 342.172C317.98 335.945 311.918 331.281 303.707 329.949L300.513 323.528C300.513 323.528 327.544 290.181 331.526 290.904L342.664 289.956C341.585 287.26 342.183 284.183 344.192 282.087C345.725 280.488 347.894 279.66 350.103 279.83C352.312 280.001 354.328 281.152 355.598 282.968L360.757 290.348C363.98 294.957 366.16 300.212 367.147 305.749L368.324 312.354C369.634 319.701 373.927 326.178 380.183 330.248L381.924 331.381" fill="#A8542A"/>
<path d="M355.167 361.192L340.315 352.234L333.164 347.92C331.635 347.019 330.174 346.008 328.792 344.895C326.291 342.837 324.279 340.339 321.987 338.07C317.049 333.182 311.091 329.465 304.164 328.293L305.19 329.082L301.996 322.662L301.727 324.742C306.104 319.343 310.587 314.03 315.175 308.803C318.511 304.996 321.894 301.215 325.478 297.638C326.819 296.3 328.193 294.997 329.653 293.79C329.765 293.697 330.052 293.476 329.778 293.686C329.909 293.586 330.041 293.487 330.174 293.391C330.436 293.202 330.702 293.019 330.981 292.856C331.107 292.782 331.665 292.518 331.385 292.628C331.06 292.756 331.41 292.619 331.476 292.608C331.891 292.539 331.105 292.608 331.333 292.611C331.364 292.611 331.402 292.612 331.434 292.61C330.602 292.673 331.37 292.629 331.533 292.62C331.585 292.617 331.637 292.607 331.689 292.606C332.045 292.602 332.409 292.545 332.763 292.515L336.618 292.187L342.664 291.673C343.197 291.665 343.698 291.413 344.021 290.989C344.344 290.564 344.454 290.015 344.32 289.499C343.168 286.724 344.32 283.528 346.978 282.127C349.275 280.99 352.048 281.516 353.77 283.414C354.633 284.477 355.43 285.591 356.156 286.752C357.133 288.151 358.111 289.549 359.088 290.947C362.369 295.639 364.581 300.993 365.568 306.632C366.314 310.797 366.852 314.999 368.524 318.922C369.933 322.224 371.95 325.232 374.47 327.79C376.476 329.714 378.685 331.415 381.058 332.863C382.916 334.071 384.639 331.1 382.791 329.898C380.668 328.604 378.692 327.083 376.899 325.362C374.52 322.963 372.652 320.108 371.407 316.968C369.957 313.248 369.516 309.198 368.804 305.292C367.614 299.183 365.108 293.406 361.46 288.364L357.965 283.365C356.938 281.614 355.483 280.153 353.737 279.117C350.387 277.383 346.316 277.891 343.494 280.395C340.673 282.898 339.685 286.881 341.008 290.413L342.664 288.239C338.971 288.553 335.276 288.843 331.585 289.182C331.385 289.2 332.79 289.141 331.48 289.18C331.414 289.182 331.347 289.179 331.28 289.182C330.969 289.197 330.663 289.257 330.37 289.362C329.784 289.574 329.23 289.865 328.723 290.227C327.293 291.244 325.946 292.374 324.697 293.605C317.415 300.499 310.945 308.32 304.517 315.999C302.764 318.093 301.025 320.198 299.298 322.314C298.775 322.88 298.667 323.715 299.03 324.395L301.348 329.055C301.603 329.657 301.895 330.244 302.222 330.812C302.781 331.654 303.657 331.66 304.558 331.85C305.464 332.041 306.359 332.277 307.242 332.559C310.54 333.652 313.608 335.346 316.289 337.556C319.138 339.865 321.416 342.663 324.019 345.217C327.068 348.02 330.436 350.454 334.054 352.468L345.359 359.287L353.434 364.158C355.331 365.302 357.059 362.334 355.167 361.192H355.167Z" fill="black"/>
<path d="M320.66 320.851C309.102 317.574 297.108 316.099 285.1 316.479C272.913 318.104 273.754 327.007 285.735 328.28C297.715 329.554 302.65 327.618 316.096 335.571" fill="#A8542A"/>
<path d="M321.117 319.195C317.525 318.116 313.867 317.267 310.167 316.654C306.292 315.959 302.381 315.439 298.459 315.105C296.125 314.907 293.787 314.779 291.444 314.722C289.05 314.569 286.648 314.621 284.263 314.877C281.344 315.317 278.025 316.313 276.052 318.663C274.465 320.432 274.215 323.028 275.434 325.068C276.914 327.512 279.823 328.812 282.489 329.461C286.004 330.317 289.753 330.355 293.352 330.541C296.622 330.614 299.877 331.005 303.071 331.707C307.359 332.898 311.454 334.698 315.23 337.053C316.045 337.493 317.061 337.207 317.529 336.408C317.996 335.608 317.746 334.583 316.963 334.088C311.011 330.59 304.848 328.065 297.941 327.409C295.034 327.134 292.11 327.073 289.198 326.867C286.13 326.65 282.804 326.49 280.094 324.871C279.3 324.454 278.649 323.809 278.225 323.019C278.05 322.592 278.027 322.118 278.16 321.675C279.002 319.656 282 318.794 284.086 318.377C286.229 318.072 288.398 317.992 290.557 318.138C292.714 318.171 294.868 318.267 297.02 318.425C300.745 318.696 304.451 319.145 308.137 319.77C312.217 320.406 316.249 321.32 320.204 322.506C322.317 323.172 323.221 319.858 321.117 319.195L321.117 319.195Z" fill="black"/>
<path d="M321.156 307.696C321.156 307.696 302.354 299.937 283.109 296.994C270.833 296.302 269.988 305.204 281.516 308.705C293.044 312.205 303.53 316.282 322.831 323.62" fill="#A8542A"/>
<path d="M321.613 306.04C316.981 304.132 312.208 302.526 307.429 301.036C302.81 299.596 298.141 298.311 293.423 297.234C288.717 296.16 283.698 294.748 278.85 295.461C276.041 295.873 272.869 297.184 271.898 300.104C271.004 302.789 272.624 305.473 274.658 307.13C277.548 309.484 281.151 310.361 284.629 311.473C287.878 312.511 291.106 313.614 294.32 314.758C303.729 318.107 313.041 321.727 322.375 325.276C324.443 326.062 325.337 322.744 323.288 321.964C315.241 318.904 307.207 315.805 299.121 312.849C296.018 311.715 292.906 310.608 289.775 309.552C286.73 308.525 283.591 307.702 280.583 306.579C278.432 305.775 275.468 304.156 275.085 301.903C275.13 302.167 275.08 301.561 275.09 301.44C275.111 301.157 275.057 301.691 275.098 301.411C275.113 301.302 275.142 301.196 275.184 301.095C275.224 300.97 275.285 300.853 275.363 300.748C275.453 300.59 275.57 300.449 275.709 300.331C276.621 299.582 277.72 299.095 278.887 298.921C280.794 298.58 282.749 298.597 284.65 298.972C287.068 299.383 289.474 299.859 291.868 300.399C296.38 301.41 300.848 302.615 305.271 303.963C310.473 305.549 315.668 307.278 320.7 309.351C321.614 309.596 322.555 309.062 322.812 308.152C323.041 307.24 322.513 306.31 321.613 306.04L321.613 306.04Z" fill="black"/>
<path d="M330.652 298.89C330.652 298.89 309.036 283.241 290.966 275.996C279.169 272.53 276.321 281.006 286.75 287.037C297.179 293.069 306.463 299.425 323.588 310.962" fill="#A8542A"/>
<path d="M331.519 297.407C327.751 294.68 323.857 292.115 319.936 289.616C312.114 284.501 303.927 279.966 295.442 276.048C291.603 274.329 287.158 272.569 282.903 273.889C279.895 274.822 278.036 277.496 278.78 280.654C279.692 284.52 283.396 287.068 286.604 288.938C289.753 290.773 292.864 292.671 295.937 294.631C304.988 300.379 313.831 306.454 322.722 312.445C324.56 313.683 326.281 310.709 324.456 309.479C316.757 304.293 309.089 299.058 301.304 294.001C298.356 292.086 295.387 290.203 292.382 288.379C289.3 286.508 285.603 284.932 283.301 282.068C282.554 281.238 282.108 280.182 282.034 279.068C282.082 278.295 282.595 277.629 283.33 277.383C286.511 275.87 290.731 277.68 293.709 279.013C301.762 282.726 309.543 287.004 316.993 291.814C321.33 294.548 325.631 297.366 329.786 300.372C331.579 301.669 333.295 298.691 331.519 297.407V297.407Z" fill="black"/>
<path d="M343.494 292.5C343.494 292.5 321.146 269.343 304.55 259.165C293.504 253.765 289.272 261.642 298.539 269.34C307.806 277.039 315.889 284.865 330.831 299.117" fill="#A8542A"/>
<path d="M344.708 291.286C335.302 281.437 325.177 272.301 314.415 263.955C310.935 261.289 307.259 258.258 303.129 256.692C299.806 255.431 294.642 254.743 292.491 258.395C290.361 262.01 293.051 266.324 295.561 268.927C297.073 270.493 298.847 271.818 300.497 273.234C301.986 274.512 303.46 275.805 304.922 277.114C313.343 284.645 321.443 292.535 329.617 300.331C331.216 301.856 333.649 299.432 332.045 297.903C324.927 291.113 317.854 284.27 310.598 277.626C307.802 275.066 304.972 272.544 302.085 270.087C299.513 267.899 295.419 265.189 295.179 261.499C295.021 260.61 295.508 259.732 296.345 259.395C297.944 258.707 299.947 259.228 301.507 259.749C303.5 260.519 305.375 261.563 307.079 262.851C308.804 264.027 310.492 265.256 312.155 266.517C318.95 271.771 325.464 277.379 331.668 283.319C335.273 286.71 338.841 290.153 342.279 293.714C343.817 295.307 346.244 292.877 344.708 291.285V291.286Z" fill="black"/>
<path d="M381.924 331.381L380.183 330.248C373.927 326.178 369.634 319.701 368.325 312.353L367.147 305.749C366.16 300.212 363.98 294.957 360.758 290.348L355.598 282.968C354.329 281.152 352.312 280.001 350.104 279.83C347.895 279.66 345.726 280.488 344.192 282.087C342.183 284.183 341.585 287.26 342.664 289.956L347.174 301.23C347.174 301.23 338.137 315.433 337.325 331.064" fill="#A8542A"/>
<path d="M382.791 329.898C379.835 328.116 377.198 325.855 374.987 323.206C372.424 319.896 370.705 316.013 369.979 311.891C369.597 309.815 369.24 307.735 368.868 305.658C368.143 301.55 366.803 297.575 364.892 293.866C363.551 291.429 362.05 289.084 360.398 286.846C359.15 285.061 357.976 283.188 356.616 281.486C353.985 278.223 349.467 277.178 345.67 278.954C341.873 280.729 339.779 284.867 340.596 288.978C341.015 291.239 342.239 293.488 343.085 295.605L345.518 301.686L345.691 300.363C343.859 303.346 342.272 306.473 340.945 309.713C337.945 316.468 336.139 323.691 335.607 331.063C335.482 333.271 338.916 333.264 339.041 331.063C339.588 321.407 343.056 311.844 347.831 303.486C348.357 302.828 348.72 302.055 348.891 301.23C348.74 300.33 348.434 299.463 347.987 298.667L344.533 290.033C343.768 288.47 343.675 286.663 344.274 285.029C345.118 283.024 347.024 281.67 349.195 281.532C352.811 281.332 354.436 284.293 356.222 286.848C358.358 289.689 360.295 292.674 362.02 295.782C363.976 299.901 365.302 304.291 365.954 308.804C366.758 313.313 367.604 317.651 369.884 321.709C372.578 326.502 376.513 329.907 381.057 332.863C382.915 334.072 384.638 331.1 382.79 329.898L382.791 329.898Z" fill="black"/>
<path d="M639.572 488.912C639.403 491.812 639.797 494.718 640.734 497.468C642.384 502.877 646.779 507.004 652.28 508.311L651.081 506.199C649.349 517.466 647.749 528.754 646.156 540.041C644.163 554.163 642.204 568.29 640.277 582.422C639.34 589.261 638.408 596.1 637.479 602.94C636.601 609.41 635.303 615.984 635.26 622.526C635.212 636.693 640.679 650.323 650.503 660.531C653.998 663.925 657.783 667.007 661.814 669.743L676.549 680.455L697.362 695.586L719.225 711.48L737.414 724.703L746.897 731.597L747.329 731.911C749.119 733.212 750.834 730.234 749.062 728.946L742.568 724.224L726.289 712.39L705.035 696.938L683.611 681.363L666.882 669.201C664.417 667.409 661.953 665.618 659.488 663.826C649.114 656.191 642.001 644.925 639.568 632.277C638.273 625.534 638.748 618.933 639.661 612.187C640.54 605.695 641.422 599.203 642.307 592.712C644.229 578.621 646.171 564.532 648.135 550.445C649.836 538.273 651.552 526.101 653.361 513.943C653.7 511.665 654.044 509.388 654.393 507.111C654.623 506.2 654.094 505.269 653.193 504.999C648.64 503.956 645.043 500.471 643.855 495.954C643.12 493.683 642.832 491.292 643.007 488.912C643.171 486.707 639.736 486.718 639.573 488.912L639.572 488.912Z" fill="black"/>
<path d="M595.276 493.892L593.546 500.876L588.836 519.879L581.871 547.986L573.374 582.276L564.067 619.833L554.674 657.738L545.946 692.962L538.544 722.831L533.223 744.302C532.386 747.682 531.497 751.055 530.709 754.447C530.675 754.594 530.636 754.741 530.6 754.888C530.068 757.034 533.379 757.949 533.911 755.801L535.642 748.818L540.351 729.814L547.316 701.708L555.813 667.417L565.12 629.861L574.513 591.956L583.242 556.732L590.643 526.863L595.964 505.391C596.802 502.011 597.69 498.639 598.478 495.247C598.512 495.099 598.551 494.953 598.587 494.805C599.119 492.66 595.808 491.745 595.276 493.892L595.276 493.892Z" fill="black"/>
<path d="M602.144 458.971L598.34 480.987L596.12 493.832C595.355 498.259 594.87 502.575 596.152 507.007C597.684 512.303 601.425 516.586 604.607 520.972C605.892 522.743 608.873 521.031 607.572 519.238C605.186 515.951 602.335 512.689 600.564 509.014C598.872 505.442 598.308 501.44 598.948 497.54C599.07 496.796 599.205 496.054 599.333 495.311L603.987 468.382L605.456 459.884C605.829 457.723 602.52 456.794 602.144 458.971H602.144Z" fill="black"/>
<path d="M471.113 400.411L477.077 393.637L477.92 392.679C478.591 392.008 478.591 390.921 477.921 390.25C477.25 389.579 476.163 389.579 475.492 390.25L469.528 397.025L468.684 397.983C468.25 398.416 468.081 399.049 468.24 399.642C468.399 400.234 468.861 400.697 469.454 400.856C470.047 401.015 470.679 400.845 471.113 400.411H471.113Z" fill="black"/>
<path d="M660.036 369.002L724.943 425.498L739.021 437.012C758.195 452.26 772.905 451.442 805.869 430.055L895.736 353.26L874.176 319.127L768.865 388.064L763.836 382.451L694.617 302.73C687.921 295.018 678.21 290.589 667.996 290.589H649.589" fill="#A8542A"/>
<path d="M658.822 370.217L672.764 382.352L700.525 406.516L721.741 424.982C726.869 429.446 732.21 433.673 737.485 437.963C742.392 441.954 747.795 445.518 753.843 447.509C760.328 449.518 767.251 449.639 773.802 447.86C782.714 445.626 791.03 441.144 798.862 436.459C802.313 434.554 805.597 432.361 808.68 429.905L826.057 415.056L853.793 391.354L880.859 368.225L896.227 355.092L896.95 354.474C897.499 353.921 897.609 353.068 897.219 352.394L878.3 322.442L875.659 318.261C875.173 317.452 874.13 317.179 873.31 317.645L862.827 324.507L837.656 340.984L807.212 360.913L780.911 378.129L772.301 383.766C770.878 384.588 769.502 385.489 768.179 386.464C768.121 386.507 768.06 386.546 767.998 386.582L770.079 386.851C766.021 382.322 762.023 377.751 758.036 373.16L734.143 345.641L708.007 315.539C703.948 310.865 699.911 306.172 695.831 301.517C688.75 293.493 678.57 288.89 667.868 288.873C662.332 288.861 656.796 288.873 651.26 288.873H649.589C648.667 288.908 647.938 289.667 647.938 290.59C647.938 291.513 648.667 292.271 649.589 292.307H665.345C668.281 292.215 671.219 292.402 674.12 292.865C679.532 293.877 684.614 296.197 688.923 299.623C691.356 301.708 693.596 304.008 695.616 306.494L703.502 315.576L728.657 344.548L753.562 373.231C757.513 377.781 761.442 382.349 765.463 386.837L767.65 389.279C768.204 389.827 769.056 389.937 769.731 389.548L780.214 382.686L805.385 366.208L835.829 346.28L862.129 329.063L870.74 323.426C872.162 322.602 873.538 321.702 874.862 320.728C874.92 320.685 874.98 320.646 875.043 320.61L872.693 319.994L891.612 349.946L894.253 354.127L894.522 352.046L883.784 361.221L858.785 382.585L830.427 406.818L809.317 424.857C807.85 426.111 806.418 427.436 804.901 428.631C802.653 430.24 800.31 431.713 797.884 433.039C793.493 435.734 788.958 438.188 784.3 440.391C777.707 443.451 770.516 445.906 763.159 445.697C756.761 445.516 750.844 443.06 745.529 439.618C741.278 436.679 737.193 433.508 733.292 430.119C730.812 428.091 728.277 426.116 725.854 424.021C720.22 419.149 714.617 414.24 708.999 409.35L681.117 385.08L662.221 368.634L661.25 367.789C659.59 366.344 657.151 368.763 658.822 370.217L658.822 370.217Z" fill="black"/>
<path d="M659.891 369.002L709.489 423.781L723.568 435.295C742.742 450.543 783.326 468.231 816.291 446.844L884.974 385.029L847.276 335.154L768.865 388.066L763.836 382.452L694.618 302.731C687.921 295.019 678.21 290.59 667.996 290.59L643.866 291.162" fill="#E680A2"/>
<path d="M658.677 370.217L669.8 382.502L691.666 406.652L707.315 423.936C708.476 425.14 709.726 426.255 711.055 427.27C714.699 430.249 718.342 433.229 721.985 436.208C732.902 444.944 745.476 451.378 758.948 455.12C775.685 459.845 793.826 459.893 809.784 452.422C813.079 451.012 816.147 449.122 818.888 446.812L825.112 441.211L846.845 421.651L870.974 399.935L885.496 386.866L886.188 386.243C886.738 385.69 886.849 384.836 886.456 384.162L873.687 367.268L853.422 340.456L848.759 334.287C848.269 333.482 847.23 333.21 846.409 333.671L838.609 338.934L819.877 351.574L797.218 366.865L777.634 380.08L771.227 384.404C770.154 385.032 769.123 385.728 768.138 386.488C768.094 386.522 768.047 386.554 767.998 386.583L770.079 386.851C765.799 382.074 761.586 377.248 757.38 372.404L731.863 343.015L705.515 312.67L697.619 303.576C694.754 300.071 691.381 297.014 687.611 294.506C682.711 291.455 677.168 289.583 671.42 289.04C669.071 288.87 666.713 288.843 664.359 288.959L645.313 289.41L643.865 289.445C641.659 289.497 641.65 292.932 643.865 292.879L659.593 292.506L667.412 292.32C671.493 292.24 675.555 292.911 679.394 294.298C685.221 296.509 690.371 300.204 694.333 305.015L701.073 312.778L726.354 341.895L752.653 372.184C756.878 377.051 761.076 381.94 765.376 386.741L767.65 389.279C768.204 389.828 769.056 389.938 769.731 389.548L777.531 384.284L796.262 371.644L818.922 356.354L838.506 343.138L844.913 338.815C845.985 338.184 847.016 337.488 848.001 336.731C848.046 336.696 848.093 336.665 848.142 336.636L845.792 336.02L858.562 352.914L878.827 379.726L883.49 385.895L883.759 383.815L873.527 393.024L850.94 413.351L827.57 434.384L819.272 441.853C817.946 443.046 816.666 444.379 815.253 445.47C813.212 446.893 811.038 448.115 808.761 449.118C804.746 451.047 800.524 452.512 796.177 453.486C787.917 455.281 779.396 455.531 771.045 454.226C755.724 451.799 741.173 445.859 728.531 436.871C725.099 434.459 721.91 431.732 718.666 429.079L712.698 424.199C712.025 423.648 711.289 423.129 710.664 422.524C709.365 421.268 708.211 419.815 706.999 418.476L698.745 409.36L676.95 385.288L661.878 368.642L661.105 367.788C659.619 366.147 657.196 368.581 658.677 370.217Z" fill="black"/>
<path d="M775.692 393.404L769.728 386.63L768.885 385.671C768.212 385.006 767.129 385.006 766.456 385.671C765.808 386.351 765.808 387.42 766.456 388.1L772.42 394.874L773.264 395.833C773.937 396.498 775.019 396.498 775.692 395.833C776.341 395.153 776.341 394.083 775.692 393.404V393.404Z" fill="black"/>
<circle cx="241.147" cy="300.389" r="75.6494" fill="white"/>
<path d="M163.78 300.389C163.781 341.935 196.597 376.063 238.112 377.691C279.627 379.318 315.014 347.864 318.267 306.445C321.52 265.026 291.476 228.433 250.217 223.56C208.957 218.687 171.215 247.273 164.729 288.31C164.109 292.307 163.792 296.345 163.78 300.389C163.816 301.311 164.574 302.041 165.497 302.041C166.42 302.041 167.179 301.311 167.214 300.389C167.307 260.899 198.586 228.539 238.049 227.105C277.513 225.671 311.058 255.675 314.017 295.053C316.976 334.432 288.292 369.112 249.057 373.592C209.822 378.071 174.059 350.749 168.066 311.717C167.494 307.968 167.209 304.181 167.214 300.389C167.179 299.466 166.42 298.737 165.497 298.737C164.574 298.737 163.816 299.466 163.78 300.389Z" fill="black"/>
<path d="M241.147 376.038C221.079 376.064 201.828 368.091 187.656 353.882L194.757 330.931C198.786 317.759 210.944 308.763 224.718 308.763H253.098C266.074 308.763 277.707 316.762 282.353 328.878L293.379 355.111C279.322 368.566 260.606 376.065 241.147 376.038Z" fill="#E680A2"/>
<path d="M241.147 374.321C221.535 374.345 202.721 366.553 188.87 352.668L189.312 354.339C191.654 346.766 193.997 339.194 196.34 331.622C198.34 325.014 202.562 319.301 208.291 315.45C213.415 312.116 219.418 310.385 225.531 310.48H252.328C258.615 310.39 264.777 312.233 269.982 315.76C275.199 319.347 278.61 324.369 281.03 330.126L291.425 354.856L291.724 355.567L292.165 353.897C278.436 367.039 260.153 374.358 241.147 374.321C240.225 374.358 239.497 375.116 239.497 376.038C239.497 376.961 240.225 377.719 241.147 377.756C256.674 377.739 271.839 373.068 284.684 364.346C288.195 361.941 291.509 359.258 294.594 356.325C295.04 355.894 295.21 355.251 295.035 354.655L284.95 330.66C284.398 329.349 283.876 328.02 283.306 326.718C281.642 322.93 279.273 319.492 276.327 316.586C270.298 310.667 262.244 307.26 253.798 307.054C245.016 306.863 236.213 307.046 227.43 307.046C222.019 307.046 216.813 307.559 211.762 309.705C204.229 312.916 198.155 318.809 194.72 326.242C192.95 330.133 191.889 334.392 190.628 338.466L186.279 352.525L186 353.425C185.836 354.021 186.005 354.659 186.442 355.096C197.562 366.195 211.788 373.659 227.241 376.501C231.831 377.324 236.484 377.743 241.147 377.755C242.066 377.715 242.791 376.958 242.791 376.038C242.791 375.118 242.066 374.361 241.147 374.321Z" fill="black"/>
<path d="M249.212 248.824H259.308C262.25 248.824 265.073 249.993 267.153 252.074C269.234 254.154 270.403 256.976 270.403 259.919C270.403 265.162 268.32 270.19 264.613 273.897C260.906 277.604 255.878 279.687 250.636 279.687H242.648L249.212 248.824Z" fill="black"/>
<path d="M249.213 250.541H258.071C259.624 250.46 261.179 250.667 262.658 251.149C264.987 252.048 266.868 253.83 267.89 256.108C269.907 260.612 268.088 266.422 265.434 270.267C262.459 274.522 257.797 277.292 252.637 277.87C249.311 278.073 245.978 278.106 242.649 277.97L244.304 280.143L250.04 253.176L250.868 249.281C251.327 247.125 248.017 246.204 247.557 248.368L241.821 275.336L240.993 279.231C240.86 279.746 240.971 280.295 241.294 280.719C241.617 281.143 242.116 281.395 242.649 281.404C245.797 281.404 249 281.583 252.141 281.346C258.111 280.913 263.633 278.019 267.386 273.357C270.916 268.902 273.106 262.554 271.755 256.874C270.299 251.155 265.163 247.14 259.261 247.107C255.913 247.069 252.562 247.107 249.213 247.107C248.293 247.147 247.568 247.904 247.568 248.824C247.568 249.744 248.293 250.501 249.213 250.541Z" fill="black"/>
<circle cx="240.335" cy="280.738" r="16.6109" fill="#A8542A"/>
<path d="M222.008 280.738C222.006 288.48 226.869 295.389 234.158 298C241.447 300.61 249.591 298.36 254.504 292.376C259.418 286.393 260.043 277.967 256.065 271.325C252.087 264.682 244.364 261.255 236.77 262.763C228.242 264.549 222.102 272.025 222.008 280.738C221.986 282.948 225.42 282.95 225.442 280.738C225.446 274.457 229.39 268.853 235.301 266.73C241.212 264.607 247.82 266.421 251.819 271.265C255.818 276.108 256.348 282.94 253.144 288.343C249.941 293.745 243.692 296.557 237.524 295.371C230.537 293.974 225.491 287.863 225.442 280.738C225.42 278.529 221.986 278.524 222.008 280.738Z" fill="black"/>
<path d="M262.413 254.983C262.413 251.647 259.73 248.931 256.394 248.889C246.957 248.769 237.106 248.79 229.513 248.843C223.517 248.843 217.927 251.875 214.656 256.9C211.386 261.925 210.877 268.263 213.305 273.746L215.032 277.646L219.408 287.267C220.52 289.712 223.06 291.182 225.734 290.928C228.408 290.673 230.626 288.75 231.256 286.14C231.526 284.988 231.679 283.812 231.715 282.63C226.248 280.528 228.771 272.538 232.556 273.799C236.341 275.061 235.92 283.892 235.92 283.892C235.92 283.892 237.261 283.356 237.801 277.787C238.095 274.955 240.42 272.766 243.264 272.645H244.752C254.507 272.645 262.414 264.737 262.414 254.983L262.413 254.983Z" fill="#FFC41F"/>
<path d="M264.13 254.983C264.109 252.714 263.12 250.562 261.412 249.069C259.531 247.472 257.408 247.183 255.021 247.156C249.173 247.09 243.325 247.068 237.476 247.089C233.046 247.099 228.281 246.642 223.979 247.914C220.106 249.069 216.691 251.405 214.211 254.596C211.715 257.796 210.269 261.688 210.07 265.741C210.028 269.273 210.828 272.763 212.404 275.924C214.18 279.934 215.987 283.932 217.827 287.915C219.315 291.231 222.844 293.134 226.431 292.556C228.353 292.265 230.099 291.272 231.33 289.769C232.961 287.745 233.313 285.154 233.433 282.63C233.417 281.863 232.907 281.194 232.172 280.974C230.687 280.317 229.925 278.657 230.393 277.102C230.472 276.719 230.629 276.355 230.854 276.034C231.135 275.609 230.714 276.152 231.046 275.786C231.057 275.775 231.452 275.428 231.241 275.589C231.647 275.28 231.874 275.243 232.362 275.606C233.513 276.464 233.889 278.753 234.062 280.236C234.208 281.449 234.255 282.671 234.204 283.891C234.217 284.501 234.548 285.059 235.077 285.362C235.606 285.666 236.255 285.67 236.788 285.374C238.253 284.733 238.794 282.294 239.067 280.954C239.41 279.274 239.226 277.271 240.355 275.866C241.205 274.86 242.473 274.304 243.789 274.361C247.011 274.435 250.209 273.781 253.143 272.449C259.858 269.222 264.129 262.433 264.131 254.983C264.096 254.06 263.337 253.331 262.414 253.331C261.491 253.331 260.733 254.06 260.697 254.983C260.661 261.319 256.915 267.045 251.123 269.615C248.553 270.744 246.041 270.807 243.307 270.927C239.87 271.051 236.952 273.486 236.216 276.846C235.899 278.511 235.848 280.502 235.226 281.955C235.225 281.959 235.043 282.29 234.982 282.42C234.817 282.766 235.048 282.413 234.971 282.457C234.57 282.683 235.293 282.304 235.054 282.409L237.638 283.891C237.788 280.582 237.486 276.4 235.314 273.743C233.987 271.994 231.581 271.478 229.654 272.53C227.877 273.738 226.821 275.755 226.842 277.905C226.788 280.76 228.567 283.331 231.259 284.285L229.999 282.63C229.862 285.533 229.126 288.775 225.736 289.21C223.395 289.511 221.69 288.13 220.758 286.107C219.204 282.731 217.655 279.351 216.15 275.954C214.932 273.61 214.071 271.097 213.593 268.499C213.198 265.187 213.848 261.834 215.454 258.91C217.047 256.008 219.486 253.659 222.447 252.178C225.79 250.504 229.312 250.558 232.955 250.539C238.55 250.511 244.145 250.512 249.74 250.543C251.195 250.553 252.65 250.565 254.105 250.58C255.307 250.479 256.517 250.563 257.694 250.827C259.477 251.432 260.682 253.1 260.697 254.983C260.755 257.189 264.19 257.198 264.13 254.983Z" fill="black"/>
<path d="M647.669 290.907C648.459 301.926 643.306 312.529 634.153 318.715C625 324.902 613.241 325.731 603.31 320.89C593.38 316.05 586.79 306.275 586.025 295.254L647.669 290.907Z" fill="#A8542A"/>
<path d="M645.953 290.907C647.153 306.981 635.096 320.985 619.021 322.186C602.947 323.386 588.943 311.328 587.743 295.254L586.026 296.971L606.856 295.502L640.055 293.161L647.67 292.624C649.862 292.47 649.879 289.034 647.67 289.19L626.839 290.659L593.641 293L586.026 293.537C585.082 293.549 584.32 294.311 584.309 295.254C585.218 308.986 594.652 320.668 607.884 324.449C621.117 328.229 635.298 323.294 643.324 312.115C647.745 305.964 649.889 298.466 649.387 290.907C649.244 288.713 645.809 288.697 645.953 290.907Z" fill="black"/>
<path d="M634.087 297.556L631.112 258.698L598.828 273.26L599.236 298.859" fill="#A8542A"/>
<path d="M635.804 297.556L633.201 263.565L632.829 258.698C632.812 258.09 632.481 257.534 631.953 257.232C631.425 256.929 630.778 256.923 630.245 257.215L601.985 269.963L597.961 271.778C597.429 272.081 597.103 272.649 597.111 273.261L597.468 295.674L597.519 298.859C597.554 301.067 600.988 301.073 600.953 298.859L600.596 276.446L600.545 273.261L599.695 274.743L627.954 261.996L631.978 260.181L629.395 258.698L631.997 292.689L632.37 297.556C632.538 299.745 635.973 299.764 635.804 297.556V297.556Z" fill="black"/>
<path d="M632.152 272.113C650.33 256.357 643.672 241.861 644.108 231.051C644.361 224.774 635.37 211.681 635.37 211.681L583.525 200.165L572.154 217.514C572.154 217.514 550.408 289.734 610.94 275.955" fill="#A8542A"/>
<path d="M633.366 273.328C638.806 268.571 643.399 262.717 645.413 255.683C646.879 250.565 646.808 245.253 646.346 239.998C646.148 237.751 645.894 235.503 645.822 233.247C645.889 231.028 645.649 228.811 645.108 226.659C643.626 221.824 640.992 217.293 638.305 213.039C637.709 212.096 636.951 210.417 635.826 210.025C635.446 209.918 635.061 209.832 634.671 209.769L627.012 208.067L601.492 202.399C595.755 201.124 590.029 199.746 584.27 198.573C584.174 198.554 584.078 198.531 583.982 198.509C583.233 198.325 582.45 198.643 582.043 199.298L575.572 209.171L571.614 215.211C571.156 215.802 570.774 216.447 570.477 217.132C569.296 220.978 568.44 224.915 567.92 228.904C566.56 236.493 566.294 244.238 567.131 251.902C568.145 259.727 570.873 267.762 577.074 273.012C585.138 279.839 596.248 280.192 606.217 278.616C607.954 278.341 609.681 277.999 611.397 277.611C613.552 277.125 612.64 273.813 610.484 274.299C604.631 275.766 598.576 276.259 592.562 275.76C588.399 275.387 584.395 273.977 580.916 271.659C579.469 270.637 578.154 269.441 576.999 268.097C576.447 267.473 575.944 266.807 575.494 266.105C574.994 265.354 574.533 264.578 574.113 263.779C573.279 262.225 572.606 260.589 572.105 258.897C571.541 257.08 571.101 255.226 570.789 253.349C570.594 252.203 570.544 251.824 570.426 250.734C570.32 249.759 570.239 248.781 570.183 247.801C570.071 245.882 570.046 243.958 570.091 242.037C570.135 240.174 570.244 238.313 570.408 236.457C570.488 235.556 570.58 234.657 570.685 233.759C570.734 233.335 570.786 232.912 570.841 232.49C570.855 232.379 570.93 231.825 570.877 232.215C570.909 231.975 570.943 231.735 570.977 231.495C571.627 227.085 572.53 222.716 573.683 218.41C573.708 218.315 573.813 218.118 573.795 218.02C573.799 218.039 573.459 218.584 573.793 218.142C574.817 216.789 575.675 215.271 576.605 213.852L584.475 201.843L585.008 201.031L583.069 201.82L600.579 205.709L628.496 211.911L634.913 213.336L633.887 212.547C635.4 214.753 636.787 217.057 638.085 219.395C639.924 222.709 642.329 226.859 642.395 230.665C642.46 234.431 642.794 238.131 643.064 241.887C643.503 246.204 643.177 250.565 642.101 254.769C640.245 261.25 635.94 266.525 630.937 270.898C629.27 272.356 631.707 274.776 633.365 273.327L633.366 273.328Z" fill="black"/>
<path d="M593.264 232.953C593.563 232.753 593.875 232.574 594.199 232.417C594.356 232.338 594.516 232.265 594.675 232.191C594.906 232.084 594.756 232.158 594.613 232.214C594.721 232.172 594.829 232.127 594.938 232.086C595.414 231.904 595.9 231.752 596.395 231.629C596.661 231.562 596.929 231.505 597.199 231.456C597.232 231.45 597.739 231.371 597.367 231.421C597.502 231.403 597.638 231.39 597.773 231.377C598.441 231.315 599.113 231.311 599.782 231.364C600.041 231.376 600.298 231.41 600.55 231.467C600.913 231.536 601.272 231.621 601.627 231.724C602.412 231.955 603.168 232.273 603.882 232.671C604.701 233.15 605.752 232.874 606.231 232.055C606.71 231.236 606.434 230.184 605.615 229.706C602.622 228.028 599.117 227.509 595.767 228.249C594.258 228.558 592.821 229.148 591.531 229.988C590.732 230.482 590.461 231.515 590.915 232.337C591.398 233.149 592.444 233.423 593.264 232.953V232.953Z" fill="black"/>
<path d="M571.289 232.957C571.62 232.796 570.898 233.084 571.411 232.905C571.831 232.759 572.246 232.612 572.676 232.495C574.077 232.115 575.526 231.94 576.977 231.975C579.461 231.964 581.667 233.563 582.43 235.928C583.123 238.213 582.233 240.828 581.203 242.882C580.465 244.347 579.56 245.72 578.506 246.975C577.867 247.559 577.441 248.338 577.292 249.19C577.223 249.758 577.259 250.334 577.398 250.889C578.252 254.044 581.998 253.852 584.549 253.497C585.459 253.24 585.994 252.299 585.748 251.385C585.476 250.487 584.547 249.959 583.636 250.186C582.704 250.379 581.739 250.353 580.818 250.111C580.721 250.068 580.714 250.028 580.705 250.004C580.711 250.021 580.691 249.938 580.693 249.903C580.699 249.761 580.688 249.501 580.7 249.423L580.258 250.181C584.145 245.811 588.455 238.397 584.663 232.683C581.403 227.773 574.483 227.598 569.556 229.992C567.569 230.957 569.308 233.92 571.29 232.957L571.289 232.957Z" fill="black"/>
<circle cx="573.692" cy="241.305" r="2.22144" fill="black"/>
<path d="M572.33 241.356C572.329 241.284 572.303 241.112 572.344 241.049L572.33 241.157C572.336 241.118 572.344 241.079 572.353 241.04C572.363 241.001 572.372 240.963 572.383 240.925C572.399 240.868 572.42 240.813 572.438 240.756C572.478 240.635 572.412 240.78 572.42 240.8C572.4 240.751 572.564 240.543 572.591 240.496C572.686 240.335 572.495 240.59 572.578 240.507C572.612 240.474 572.641 240.433 572.673 240.398C572.711 240.358 572.835 240.199 572.883 240.2C572.853 240.199 572.745 240.295 572.848 240.229C572.897 240.197 572.944 240.164 572.994 240.134C573.027 240.114 573.061 240.096 573.096 240.077C573.13 240.059 573.165 240.042 573.201 240.026C573.095 240.069 573.071 240.079 573.132 240.056C573.227 240.035 573.32 239.991 573.416 239.969C573.447 239.962 573.536 239.928 573.564 239.941C573.468 239.898 573.417 239.956 573.548 239.947C573.651 239.941 573.754 239.941 573.857 239.949C573.975 239.957 573.953 240.012 573.84 239.943C573.897 239.962 573.956 239.974 574.015 239.981C574.113 239.994 574.209 240.025 574.295 240.073L574.198 240.033C574.233 240.049 574.268 240.067 574.302 240.085C574.336 240.103 574.37 240.122 574.403 240.143C574.442 240.172 574.482 240.198 574.525 240.222C574.629 240.265 574.376 240.087 574.512 240.21C574.598 240.289 574.678 240.369 574.759 240.453C574.871 240.568 574.74 240.418 574.734 240.415C574.769 240.433 574.812 240.525 574.833 240.559C574.862 240.606 574.985 240.768 574.971 240.815C574.971 240.814 574.9 240.612 574.952 240.773C574.97 240.83 574.991 240.886 575.006 240.943C575.017 240.981 575.026 241.02 575.035 241.059C575.044 241.098 575.051 241.138 575.058 241.178C575.043 241.06 575.039 241.035 575.046 241.101C575.049 241.194 575.057 241.286 575.054 241.38C575.06 241.441 575.056 241.502 575.041 241.562C575.089 241.484 575.069 241.414 575.044 241.512C575.019 241.608 574.999 241.704 574.967 241.799L574.947 241.854C574.913 241.942 574.919 241.927 574.966 241.811C574.975 241.834 574.895 241.949 574.885 241.967C574.862 242.009 574.834 242.048 574.81 242.09C574.772 242.156 574.763 242.245 574.825 242.081C574.773 242.162 574.707 242.235 574.631 242.295C574.593 242.325 574.558 242.357 574.524 242.392C574.453 242.481 574.693 242.282 574.537 242.382C574.439 242.446 574.34 242.503 574.237 242.56C574.146 242.611 574.232 242.602 574.281 242.545C574.229 242.574 574.172 242.594 574.114 242.603C574.027 242.63 573.939 242.646 573.851 242.666C573.728 242.695 574.069 242.658 573.867 242.662C573.816 242.663 573.764 242.668 573.713 242.669C573.661 242.669 573.61 242.668 573.558 242.665C573.518 242.663 573.477 242.659 573.437 242.655L573.546 242.668C573.508 242.701 573.256 242.599 573.2 242.58C573.167 242.569 573.036 242.485 573.139 242.559C573.25 242.638 573.058 242.513 573.032 242.499C572.999 242.479 572.965 242.459 572.933 242.439C572.9 242.418 572.868 242.396 572.837 242.374C572.933 242.451 572.945 242.46 572.873 242.402C572.802 242.337 572.73 242.273 572.664 242.202L572.626 242.159C572.567 242.088 572.575 242.101 572.651 242.197C572.612 242.154 572.578 242.106 572.553 242.053C572.522 242.004 572.493 241.954 572.466 241.902L572.439 241.85C572.4 241.765 572.405 241.78 572.454 241.894C572.396 241.843 572.366 241.623 572.351 241.553C572.347 241.512 572.339 241.473 572.328 241.434C572.344 241.562 572.347 241.577 572.337 241.48C572.334 241.439 572.332 241.398 572.331 241.356C572.331 240.882 571.946 240.498 571.472 240.498C570.998 240.498 570.614 240.882 570.614 241.356C570.653 242.656 571.489 243.797 572.716 244.225C573.92 244.628 575.247 244.249 576.057 243.272C576.93 242.223 577.007 240.725 576.248 239.591C575.488 238.458 574.073 237.959 572.771 238.367C571.469 238.775 570.591 239.992 570.614 241.356C570.614 241.83 570.999 242.215 571.473 242.215C571.947 242.215 572.331 241.83 572.331 241.356L572.33 241.356Z" fill="black"/>
<circle cx="594.608" cy="239.984" r="2.22144" fill="black"/>
<path d="M593.246 240.035C593.246 239.963 593.219 239.79 593.26 239.727L593.247 239.836C593.253 239.797 593.261 239.758 593.27 239.719C593.279 239.68 593.289 239.642 593.299 239.603C593.315 239.547 593.336 239.492 593.355 239.435C593.395 239.314 593.328 239.459 593.336 239.478C593.317 239.43 593.481 239.222 593.508 239.175C593.603 239.013 593.411 239.268 593.495 239.186C593.529 239.153 593.557 239.112 593.59 239.077C593.627 239.037 593.751 238.878 593.8 238.879C593.769 238.878 593.661 238.974 593.764 238.908C593.813 238.876 593.86 238.843 593.91 238.813C593.944 238.793 593.978 238.774 594.012 238.756C594.047 238.738 594.082 238.721 594.118 238.705C594.011 238.748 593.988 238.758 594.049 238.735C594.144 238.714 594.237 238.67 594.333 238.648C594.364 238.641 594.453 238.607 594.481 238.619C594.385 238.577 594.334 238.635 594.465 238.626C594.568 238.62 594.671 238.62 594.774 238.628C594.892 238.636 594.87 238.691 594.757 238.623C594.814 238.641 594.872 238.653 594.932 238.66C595.03 238.673 595.125 238.704 595.212 238.752L595.114 238.712C595.15 238.728 595.184 238.746 595.219 238.764C595.253 238.782 595.287 238.801 595.32 238.822C595.359 238.851 595.399 238.877 595.442 238.901C595.546 238.944 595.293 238.766 595.429 238.889C595.515 238.968 595.595 239.048 595.676 239.132C595.788 239.247 595.657 239.097 595.651 239.094C595.686 239.112 595.729 239.204 595.75 239.238C595.779 239.285 595.902 239.447 595.888 239.494C595.888 239.493 595.817 239.291 595.869 239.452C595.887 239.509 595.908 239.565 595.923 239.622C595.934 239.66 595.943 239.699 595.952 239.738C595.961 239.777 595.968 239.817 595.975 239.857C595.96 239.739 595.956 239.714 595.963 239.78C595.966 239.873 595.974 239.965 595.971 240.059C595.977 240.12 595.973 240.181 595.958 240.241C596.006 240.163 595.987 240.093 595.961 240.191C595.935 240.287 595.916 240.383 595.883 240.478L595.863 240.533C595.829 240.621 595.835 240.606 595.882 240.49C595.892 240.512 595.812 240.628 595.802 240.646C595.778 240.688 595.75 240.727 595.726 240.769C595.688 240.835 595.679 240.924 595.742 240.76C595.689 240.841 595.624 240.914 595.548 240.974C595.51 241.004 595.474 241.036 595.44 241.071C595.37 241.16 595.609 240.961 595.454 241.061C595.355 241.125 595.256 241.182 595.154 241.239C595.063 241.29 595.148 241.281 595.198 241.224C595.146 241.253 595.089 241.273 595.03 241.282C594.944 241.309 594.855 241.324 594.768 241.345C594.645 241.374 594.985 241.337 594.784 241.341C594.732 241.342 594.681 241.347 594.629 241.348C594.577 241.348 594.526 241.347 594.475 241.344C594.434 241.342 594.394 241.338 594.353 241.334L594.462 241.347C594.425 241.38 594.173 241.278 594.116 241.259C594.083 241.248 593.952 241.164 594.055 241.238C594.166 241.318 593.975 241.192 593.949 241.178C593.915 241.158 593.881 241.138 593.849 241.118C593.817 241.097 593.785 241.075 593.753 241.053C593.849 241.13 593.861 241.139 593.79 241.081C593.718 241.016 593.646 240.952 593.581 240.881L593.542 240.838C593.483 240.767 593.492 240.78 593.568 240.877C593.528 240.833 593.495 240.785 593.469 240.733C593.438 240.683 593.409 240.633 593.382 240.581L593.356 240.529C593.316 240.444 593.321 240.458 593.371 240.573C593.312 240.522 593.282 240.302 593.267 240.232C593.263 240.192 593.256 240.152 593.245 240.113C593.26 240.241 593.263 240.256 593.254 240.159C593.25 240.118 593.248 240.077 593.247 240.035C593.247 239.561 592.863 239.177 592.389 239.177C591.915 239.177 591.53 239.561 591.53 240.035C591.569 241.335 592.405 242.476 593.633 242.904C594.836 243.307 596.163 242.928 596.973 241.951C597.846 240.902 597.923 239.404 597.164 238.27C596.404 237.137 594.989 236.639 593.687 237.047C592.385 237.455 591.507 238.671 591.53 240.035C591.53 240.51 591.915 240.894 592.389 240.894C592.863 240.894 593.247 240.51 593.247 240.035L593.246 240.035Z" fill="black"/>
<path d="M589.146 258.015C589.723 259.149 590.862 259.887 592.132 259.953C593.402 260.019 594.611 259.403 595.304 258.336C595.996 257.269 596.066 255.913 595.489 254.78L589.146 258.015Z" fill="black"/>
<path d="M588.405 258.449C589.263 260.081 591.044 261.009 592.874 260.776C594.703 260.544 596.196 259.2 596.619 257.406C596.849 256.372 596.711 255.29 596.23 254.347C595.986 253.945 595.466 253.808 595.056 254.039L589.492 256.877L588.713 257.274C588.303 257.514 588.165 258.039 588.405 258.449C588.644 258.858 589.17 258.996 589.579 258.757L595.143 255.919L595.922 255.522L594.748 255.214C594.775 255.267 594.8 255.32 594.824 255.374C594.795 255.304 594.799 255.317 594.837 255.412C594.873 255.522 594.91 255.63 594.939 255.742C594.968 255.853 594.991 255.964 595.008 256.076C594.986 255.926 595.011 256.15 595.014 256.184C595.02 256.295 595.021 256.407 595.018 256.518C595.017 256.551 594.985 256.878 595.01 256.704C594.981 256.896 594.937 257.084 594.876 257.268C594.866 257.298 594.747 257.59 594.812 257.449C594.766 257.55 594.715 257.648 594.66 257.744C594.618 257.816 594.574 257.887 594.528 257.956C594.497 258.002 594.464 258.048 594.431 258.092C594.48 258.029 594.472 258.037 594.408 258.115C594.289 258.243 594.078 258.457 594.003 258.517C593.844 258.632 593.676 258.736 593.502 258.828C593.361 258.903 593.211 258.96 593.055 258.997C592.945 259.028 592.834 259.05 592.722 259.074C592.618 259.09 592.611 259.092 592.699 259.079C592.643 259.085 592.587 259.09 592.531 259.093C592.337 259.105 592.141 259.1 591.947 259.08C592.121 259.098 591.799 259.051 591.766 259.043C591.659 259.019 591.552 258.99 591.447 258.956C591.368 258.93 591.289 258.903 591.213 258.871C591.358 258.932 591.07 258.795 591.043 258.78C590.946 258.727 590.851 258.67 590.759 258.608C590.713 258.577 590.667 258.544 590.622 258.511C590.686 258.559 590.678 258.552 590.6 258.488C590.452 258.356 590.313 258.214 590.184 258.064C590.266 258.162 590.08 257.915 590.063 257.888C589.999 257.789 589.942 257.686 589.887 257.582C589.732 257.317 589.448 257.155 589.141 257.156C588.835 257.158 588.552 257.323 588.4 257.59C588.248 257.856 588.25 258.183 588.405 258.448L588.405 258.449Z" fill="black"/>
<path d="M630.535 230.416C629.572 230.146 628.552 230.15 627.591 230.427C625.437 231.134 623.675 232.706 622.728 234.765C621.787 236.66 621.132 238.684 620.784 240.771C620.532 241.686 621.069 242.631 621.983 242.884C622.898 243.136 623.844 242.599 624.096 241.684C624.269 240.728 624.494 239.781 624.77 238.849C624.887 238.463 625.014 238.08 625.155 237.703C625.217 237.537 625.288 237.375 625.348 237.21C625.434 236.974 625.171 237.6 625.329 237.258C625.374 237.159 625.417 237.06 625.463 236.962C625.719 236.411 626.02 235.882 626.363 235.381C626.395 235.334 626.429 235.288 626.461 235.242C626.565 235.09 626.719 235.042 626.391 235.326C626.463 235.25 626.53 235.168 626.59 235.082C626.748 234.896 626.916 234.719 627.092 234.551C627.174 234.473 627.258 234.398 627.344 234.325C627.377 234.297 627.412 234.27 627.444 234.241C627.648 234.062 627.106 234.482 627.272 234.373C627.438 234.265 627.595 234.145 627.768 234.044C627.917 233.957 628.073 233.887 628.227 233.808C628.434 233.702 627.72 233.993 628.075 233.875C628.159 233.847 628.241 233.816 628.326 233.789C628.455 233.749 628.586 233.715 628.719 233.687C628.788 233.673 628.859 233.665 628.927 233.649C629.128 233.604 628.361 233.704 628.708 233.68C628.924 233.661 629.142 233.657 629.359 233.667C629.416 233.67 629.472 233.678 629.529 233.681C629.812 233.697 629.117 233.609 629.221 233.638C629.291 233.658 629.367 233.662 629.438 233.678C629.5 233.691 629.562 233.707 629.622 233.727C630.536 233.972 631.477 233.437 631.734 232.527C631.963 231.616 631.435 230.686 630.535 230.415V230.416Z" fill="black"/>
<path d="M657.529 230.583L644.135 264.373C642.252 269.125 637.617 272.209 632.506 272.11L632.162 272.104L632.152 272.114L629.195 251.301C632.034 248.778 635.759 239.589 635.436 234.472C634.948 226.742 630.683 225.185 625.284 225.526C623.318 225.651 621.364 227.136 619.694 229.333C615.83 234.83 617.143 247.04 617.143 247.04L611.517 228.672C609.069 222.364 603.06 218.155 596.296 218.01L571.99 217.486C571.99 217.486 537.407 213.893 549.426 174.4H607.808C623.109 174.4 637.323 182.312 645.386 195.316L650.161 203.018C654.099 203.018 657.791 204.932 660.062 208.149C662.332 211.366 662.898 215.486 661.578 219.196L657.529 230.583Z" fill="#FFC41F"/>
<path d="M655.873 230.126L649.792 245.467C647.407 251.486 645.047 257.515 642.635 263.523C641.972 265.23 640.899 266.747 639.51 267.941C638.279 268.971 636.829 269.705 635.27 270.087C634.48 270.285 633.669 270.388 632.854 270.395C632.173 270.298 631.482 270.48 630.938 270.899L633.807 271.657L631.228 253.498L630.851 250.844L630.409 252.514C631.848 251.049 633.002 249.329 633.814 247.443C634.951 245.111 635.841 242.668 636.471 240.152C637.557 235.723 637.644 230.181 634.358 226.601C631.666 223.668 626.097 222.827 622.567 224.548C617.812 226.867 616.122 232.09 615.52 236.95C615.106 240.299 615.075 243.684 615.426 247.04L618.799 246.584L615.708 236.49C614.64 233.003 613.874 229.152 612.129 225.917C608.893 220.072 602.782 216.4 596.101 216.288C592.435 216.197 588.768 216.13 585.102 216.051L572.697 215.784C572.462 215.779 572.224 215.765 571.989 215.769C571.637 215.775 572.003 215.766 572.149 215.793C571.544 215.682 570.937 215.596 570.335 215.468C564.69 214.415 559.486 211.708 555.382 207.692C552.544 204.8 550.522 201.209 549.522 197.283C548.081 191.763 548.471 185.897 549.649 180.368C550.045 178.51 550.533 176.675 551.081 174.857L549.426 176.118H606.897C611.951 176.065 616.978 176.861 621.769 178.472C629.342 181.123 636.019 185.847 641.039 192.107C643.958 195.732 646.007 199.94 648.611 203.777C649.508 205.098 651.243 204.683 652.637 205.027C654.269 205.419 655.78 206.208 657.035 207.322C659.576 209.584 660.871 212.933 660.512 216.316C660.164 218.175 659.61 219.99 658.861 221.726L656.39 228.672L655.873 230.127C655.131 232.213 658.448 233.111 659.185 231.04L662.848 220.739C663.672 218.684 664.056 216.479 663.974 214.267C663.745 210.994 662.382 207.904 660.119 205.53C657.508 202.831 653.916 201.305 650.161 201.301L651.643 202.152C650.064 199.605 648.493 197.054 646.906 194.512C638.345 180.645 623.088 172.343 606.795 172.684H564.42C559.51 172.684 554.568 172.517 549.66 172.684C549.582 172.686 549.504 172.684 549.426 172.684C548.658 172.696 547.987 173.207 547.77 173.944C544.567 184.567 543.357 197.181 550.133 206.736C554.183 212.448 560.338 216.234 566.998 218.169C568.577 218.662 570.2 219.003 571.844 219.186C574.067 219.385 576.348 219.298 578.577 219.346L593.023 219.657C594.105 219.68 595.187 219.694 596.268 219.727C599.53 219.807 602.679 220.938 605.247 222.952C607.384 224.601 609.008 226.823 609.932 229.359C610.419 230.836 610.844 232.336 611.299 233.823L615.218 246.619L615.487 247.497C616.027 249.259 619.073 249.046 618.86 247.041C618.37 242.42 618.391 237.316 619.862 232.877C620.361 231.336 621.242 229.946 622.423 228.836C623.602 227.663 625.236 227.066 626.893 227.203C629.41 227.248 631.715 228.034 632.834 230.449C634.254 233.514 633.78 237.065 632.907 240.199C632.122 243.422 630.737 246.467 628.825 249.177C628.098 250.119 627.378 250.599 627.563 251.927C627.636 252.452 627.712 252.977 627.787 253.502L628.717 260.049L630.496 272.57C630.69 273.938 632.52 274.1 633.366 273.328L633.376 273.318L632.162 273.821C638.149 273.987 643.599 270.388 645.796 264.817C646.505 263.067 647.188 261.306 647.884 259.55L656.787 237.089L659.185 231.04C659.429 230.126 658.895 229.186 657.986 228.928C657.074 228.697 656.143 229.226 655.873 230.126Z" fill="black"/>
<path d="M874.526 371.292L897.498 352.004C900.625 350.118 903.447 347.768 905.869 345.034C911.383 338.807 917.446 334.143 925.656 332.811L928.851 326.39C928.851 326.39 901.82 293.043 897.838 293.765L886.7 292.818C887.778 290.122 887.18 287.045 885.171 284.949C883.638 283.35 881.469 282.521 879.26 282.692C877.051 282.863 875.035 284.014 873.766 285.83L868.606 293.21C865.384 297.819 863.203 303.074 862.216 308.61L861.039 315.215C859.729 322.563 855.437 329.04 849.181 333.11L847.439 334.242" fill="#A8542A"/>
<path d="M875.74 372.506L893.026 357.993C895.182 356.071 897.438 354.266 899.786 352.584C903.338 350.21 906.071 347.196 909.016 344.158C911.643 341.35 914.698 338.976 918.069 337.126C919.913 336.156 921.869 335.415 923.893 334.919C924.986 334.65 926.459 334.698 927.139 333.677C927.263 333.462 927.374 333.239 927.471 333.01L930.333 327.257C930.697 326.577 930.589 325.741 930.065 325.176C925.559 319.618 920.942 314.152 916.213 308.776C912.854 304.954 909.448 301.154 905.82 297.582C904.488 296.237 903.077 294.973 901.595 293.796C900.629 292.869 899.404 292.258 898.083 292.043C897.935 292.038 897.805 292.072 897.655 292.072C896.971 292.078 898.051 292.215 897.732 292.039C897.412 291.961 897.082 291.933 896.753 291.956L892.983 291.635L886.699 291.101L888.355 293.274C889.477 290.131 888.808 286.627 886.606 284.118C884.405 281.61 881.018 280.49 877.756 281.194C873.325 282.181 871.102 286.652 868.708 290.076C865.4 294.807 862.618 299.695 861.169 305.345C860.149 309.322 859.893 313.476 858.766 317.426C857.743 321.03 855.927 324.359 853.451 327.17C851.423 329.338 849.109 331.218 846.572 332.76C844.727 333.96 846.446 336.935 848.306 335.725C853.056 332.635 857.138 329.028 859.822 323.939C862.034 319.746 862.766 315.271 863.585 310.676C864.494 304.8 866.673 299.193 869.971 294.245C871.681 291.765 873.375 289.258 875.155 286.828C876.827 284.422 880.052 283.678 882.609 285.109C885.166 286.54 886.219 289.678 885.043 292.361C884.909 292.877 885.019 293.427 885.342 293.851C885.666 294.275 886.166 294.527 886.699 294.535L891.791 294.968C893.742 295.134 895.744 295.452 897.703 295.471C897.747 295.471 897.79 295.481 897.834 295.482C899.203 295.52 897.7 295.439 898.004 295.472C898.31 295.504 897.489 295.405 897.826 295.453C897.926 295.469 898.023 295.501 898.114 295.547C897.528 295.229 898.232 295.629 898.382 295.717C898.644 295.871 898.895 296.042 899.141 296.218C899.274 296.313 899.404 296.41 899.534 296.509C899.526 296.502 899.415 296.41 899.656 296.608C899.998 296.889 900.338 297.172 900.672 297.464C901.366 298.071 902.04 298.701 902.705 299.341C909.822 306.197 916.207 313.866 922.542 321.436C924.253 323.481 925.951 325.537 927.636 327.604L927.367 325.523L924.172 331.944L925.199 331.155C918.465 332.293 912.631 335.838 907.774 340.542C905.222 343.012 903.03 345.789 900.245 348.021C898.822 349.161 897.204 350.017 895.812 351.185L879.159 365.168L873.312 370.077C871.617 371.5 874.057 373.919 875.74 372.506V372.506Z" fill="black"/>
<path d="M908.703 323.713C920.261 320.435 932.255 318.961 944.263 319.341C956.45 320.966 955.609 329.868 943.629 331.142C931.649 332.416 926.714 330.48 913.267 338.432" fill="#A8542A"/>
<path d="M909.159 325.368C912.305 324.421 915.503 323.657 918.738 323.081C926.389 321.602 934.171 320.904 941.963 320.999C944.785 321.04 948.343 321.383 950.478 323.507C950.777 323.767 951.012 324.092 951.164 324.458C951.208 324.558 951.24 324.662 951.258 324.77C951.31 324.993 951.303 324.737 951.3 325.128C951.303 325.359 951.261 325.587 951.176 325.801C951.025 326.163 950.801 326.49 950.518 326.762C948.609 328.724 945.5 329.244 942.904 329.499C939.81 329.803 936.706 329.905 933.605 330.102C930.388 330.251 927.198 330.755 924.093 331.607C919.991 332.902 916.064 334.696 912.4 336.95C911.618 337.445 911.368 338.47 911.835 339.269C912.302 340.068 913.318 340.354 914.133 339.915C917.538 337.809 921.19 336.131 925.006 334.918C927.857 334.13 930.788 333.664 933.743 333.528C937.102 333.318 940.47 333.226 943.816 332.838C946.988 332.47 950.437 331.639 952.8 329.337C954.598 327.741 955.176 325.176 954.237 322.964C953.103 320.453 950.346 319.071 947.834 318.331C943.578 317.077 938.826 317.481 934.447 317.719C930.215 317.958 925.999 318.41 921.813 319.076C917.223 319.732 912.688 320.728 908.246 322.057C906.146 322.719 907.043 326.036 909.159 325.369L909.159 325.368Z" fill="black"/>
<path d="M908.207 310.558C908.207 310.558 927.009 302.799 946.254 299.856C958.53 299.164 959.374 308.066 947.846 311.566C936.319 315.067 925.833 319.144 906.531 326.482" fill="#A8542A"/>
<path d="M908.663 312.213C912.741 310.533 916.935 309.1 921.132 307.752C925.344 306.4 929.598 305.175 933.892 304.112C936.238 303.531 938.597 303.003 940.968 302.526C943.301 301.937 945.692 301.607 948.097 301.541C949.566 301.525 951.023 301.803 952.383 302.36C952.819 302.557 953.224 302.815 953.586 303.128C953.702 303.232 953.809 303.344 953.906 303.466C953.965 303.55 954.243 304.123 954.154 303.879C954.404 304.561 954.284 305.324 953.837 305.897C953.116 306.944 952.149 307.797 951.019 308.381C948.228 309.99 944.888 310.664 941.843 311.663C938.784 312.667 935.743 313.725 932.714 314.815C923.788 318.026 914.941 321.455 906.074 324.826C904.028 325.604 904.916 328.925 906.987 328.138C915.52 324.893 924.036 321.599 932.619 318.49C935.851 317.319 939.095 316.182 942.359 315.105C945.729 313.993 949.366 313.213 952.49 311.494C954.991 310.118 957.603 307.784 957.711 304.716C957.814 301.79 955.467 299.817 952.934 298.898C948.681 297.356 944.107 298.401 939.836 299.258C934.843 300.261 929.903 301.523 925.019 302.962C919.163 304.641 913.399 306.624 907.749 308.902C906.855 309.179 906.33 310.104 906.549 311.014C906.806 311.925 907.748 312.459 908.661 312.213L908.663 312.213Z" fill="black"/>
<path d="M898.711 301.751C898.711 301.751 920.327 286.102 938.397 278.858C950.194 275.391 953.042 283.868 942.613 289.899C932.184 295.93 922.9 302.287 905.775 313.824" fill="#A8542A"/>
<path d="M899.577 303.234C909.992 295.61 921.064 288.927 932.662 283.264C936.268 281.533 940.297 279.295 944.445 279.822C944.959 279.883 945.462 280.01 945.943 280.199C946.109 280.273 946.593 280.566 946.578 280.554C946.744 280.68 946.891 280.829 947.015 280.996C947.211 281.255 947.146 281.164 947.213 281.354C947.26 281.49 947.296 281.629 947.322 281.771C947.375 282.058 947.307 281.542 947.325 281.84C947.373 282.377 947.268 282.917 947.023 283.397C945.652 286.609 941.942 288.279 939.118 289.957C936.158 291.717 933.23 293.529 930.335 295.395C921.76 300.891 913.355 306.651 904.909 312.341C903.085 313.57 904.802 316.546 906.642 315.306C914.717 309.866 922.758 304.367 930.939 299.086C934.054 297.076 937.194 295.106 940.376 293.206C943.779 291.174 947.574 289.294 949.656 285.747C951.226 283.072 951.199 279.673 948.514 277.741C945.456 275.542 940.559 276.126 937.291 277.466C928.562 281.189 920.159 285.633 912.17 290.753C907.305 293.776 902.487 296.911 897.845 300.269C896.071 301.552 897.783 304.533 899.578 303.234L899.577 303.234Z" fill="black"/>
<path d="M885.869 295.362C885.869 295.362 908.217 272.205 924.813 262.027C935.859 256.626 940.091 264.504 930.824 272.202C921.557 279.9 913.474 287.727 898.532 301.978" fill="#A8542A"/>
<path d="M887.084 296.576C895.713 287.579 904.923 279.158 914.654 271.366C917.944 268.716 921.377 266.247 924.936 263.972C926.748 262.795 928.832 262.105 930.987 261.967C931.677 261.916 932.37 262.015 933.017 262.258C933.375 262.416 933.683 262.67 933.907 262.99C934.428 263.821 934.17 265.153 933.607 266.297C932.502 268.27 930.995 269.99 929.183 271.344C926.388 273.676 923.642 276.064 920.943 278.508C912.909 285.754 905.145 293.298 897.318 300.764C895.715 302.293 898.146 304.719 899.746 303.193C907.222 296.062 914.644 288.866 922.29 281.916C925.206 279.265 928.172 276.669 931.186 274.128C934.244 271.565 938.019 267.95 937.589 263.541C937.212 259.672 933.443 258.2 929.988 258.618C925.219 259.194 921.342 262.102 917.574 264.852C910.144 270.385 903.054 276.361 896.342 282.746C892.364 286.457 888.435 290.234 884.655 294.148C883.119 295.739 885.545 298.17 887.084 296.576L887.084 296.576Z" fill="black"/>
<path d="M847.439 334.242L849.18 333.11C855.436 329.04 859.729 322.563 861.039 315.215L862.216 308.61C863.203 303.074 865.383 297.819 868.605 293.21L873.765 285.83C875.035 284.014 877.051 282.863 879.26 282.692C881.468 282.521 883.637 283.35 885.171 284.949C887.18 287.045 887.778 290.122 886.699 292.818L882.189 304.092C882.189 304.092 891.226 318.294 892.038 333.925" fill="#A8542A"/>
<path d="M848.305 335.725C852.257 333.341 855.675 330.17 858.347 326.408C860.731 322.698 862.304 318.525 862.963 314.165C863.504 310.288 864.374 306.464 865.563 302.735C867.104 298.837 869.159 295.163 871.673 291.809L874.565 287.672C875.213 286.577 876.127 285.662 877.223 285.014C881.771 282.667 886.797 287.234 885.175 292.007C884.333 294.483 883.23 296.895 882.259 299.323L880.747 303.101C880.43 303.81 880.49 304.629 880.906 305.284C885.889 314.078 889.744 323.73 890.321 333.925C890.446 336.123 893.881 336.137 893.756 333.925C893.223 326.554 891.417 319.33 888.417 312.575C887.09 309.335 885.503 306.209 883.671 303.225L883.844 304.549C885.332 300.829 886.859 297.123 888.308 293.389C889.753 289.696 888.644 285.493 885.565 282.993C882.486 280.494 878.144 280.273 874.827 282.447C872.801 283.794 871.542 286.02 870.175 287.977C868.845 289.879 867.457 291.754 866.209 293.71C863.628 297.763 861.795 302.245 860.795 306.944C860.303 309.274 859.939 311.635 859.521 313.979C858.891 317.916 857.409 321.668 855.178 324.972C852.853 328.112 849.928 330.759 846.571 332.76C844.726 333.961 846.445 336.935 848.305 335.726L848.305 335.725Z" fill="black"/>
<path d="M595.215 351.546L576.343 350.344L571.499 393.176L575.043 392.386C584.818 390.207 591.982 382.762 592.909 373.818L595.215 351.546Z" fill="white"/>
<path d="M595.215 349.828L576.343 348.627C575.404 348.648 574.647 349.405 574.626 350.344L572.985 364.852L570.384 387.852L569.782 393.176C569.649 394.349 570.98 395.049 571.955 394.831C576.156 393.895 580.246 392.915 583.933 390.569C588.583 387.679 592.069 383.248 593.782 378.048C594.453 375.465 594.863 372.821 595.005 370.157L596.144 359.157L596.932 351.545C596.925 350.6 596.16 349.835 595.215 349.828C594.275 349.848 593.517 350.605 593.498 351.545L591.775 368.184C591.569 370.167 591.418 372.164 591.155 374.14C590.406 379.075 587.752 383.519 583.763 386.519C579.975 389.435 575.6 390.504 571.043 391.519L573.217 393.175L574.858 378.667L577.459 355.667L578.061 350.344L576.344 352.061L595.216 353.262C597.422 353.403 597.413 349.968 595.215 349.828Z" fill="black"/>
</g>
<defs>
<filter id="filter0_d_0_737" x="-4" y="0" width="1008" height="1008" filterUnits="userSpaceOnUse" color-interpolation-filters="sRGB">
<feFlood flood-opacity="0" result="BackgroundImageFix"/>
<feColorMatrix in="SourceAlpha" type="matrix" values="0 0 0 0 0 0 0 0 0 0 0 0 0 0 0 0 0 0 127 0" result="hardAlpha"/>
<feOffset dy="4"/>
<feGaussianBlur stdDeviation="2"/>
<feComposite in2="hardAlpha" operator="out"/>
<feColorMatrix type="matrix" values="0 0 0 0 0 0 0 0 0 0 0 0 0 0 0 0 0 0 0.25 0"/>
<feBlend mode="normal" in2="BackgroundImageFix" result="effect1_dropShadow_0_737"/>
<feBlend mode="normal" in="SourceGraphic" in2="effect1_dropShadow_0_737" result="shape"/>
</filter>
</defs>
</svg>
